<?xml version="1.0" standalone="no"?>
<!DOCTYPE svg PUBLIC "-//W3C//DTD SVG 1.1//EN" "http://www.w3.org/Graphics/SVG/1.1/DTD/svg11.dtd" >
<svg xmlns="http://www.w3.org/2000/svg">
<metadata></metadata>
<defs>
<font id="unnaregular" horiz-adv-x="460" >
<font-face units-per-em="1000" ascent="800" descent="-200" />
<missing-glyph horiz-adv-x="220" />
<glyph unicode="&#xd;" horiz-adv-x="333" />
<glyph unicode=" "  horiz-adv-x="220" />
<glyph unicode="&#x09;" horiz-adv-x="220" />
<glyph unicode="&#xa0;" horiz-adv-x="220" />
<glyph unicode="!" horiz-adv-x="269" d="M90 48q0 24 19 40.5t46 16.5t45.5 -17t18.5 -40.5t-19.5 -40.5t-45 -17t-45 17t-19.5 41zM105 588q0 49 49.5 49t49.5 -49q0 -28 -6 -68l-13 -92q-19 -137 -19 -211q0 -16 -11.5 -16t-11.5 16q0 74 -19 211l-13 92q-6 40 -6 68z" />
<glyph unicode="&#x22;" horiz-adv-x="252" d="M54 426l-20 174q0 40 33 40t33 -40l-20 -174q0 -17 -13 -17t-13 17zM172 426l-20 174q0 40 33 40t33 -40l-20 -174q0 -17 -13 -17t-13 17z" />
<glyph unicode="#" horiz-adv-x="505" d="M117 194h-99l11 40h99l52 171h-100l11 40h100l59 194h40l-59 -194h114l59 194h40l-58 -194h101l-11 -40h-102l-51 -171h101l-12 -40h-101l-61 -203h-40l61 203h-114l-61 -203h-40zM220 405l-52 -171h115l51 171h-114z" />
<glyph unicode="$" horiz-adv-x="466" d="M87 135v106l19 1q8 -45 41.5 -73t73 -28t57 16.5t17.5 42t-12.5 39.5t-43.5 22l-80 22q-33 8 -52.5 32.5t-19.5 62t32.5 64.5t86.5 29v176h37v-180q8 -1 33 -7.5t36.5 -6.5t22.5 7l-5 -91h-18q0 32 -27 56t-71 24q-67 0 -67 -55q0 -41 52 -54l81 -22q75 -20 75 -90 q0 -47 -30 -75t-82 -33v-215h-37v215q-20 2 -53 11t-45.5 9t-20.5 -5z" />
<glyph unicode="%" horiz-adv-x="548" d="M36 -77l-36 25l511 718l37 -22zM62.5 433q-32.5 37 -32.5 105.5t33.5 105t89 36.5t89 -37t33.5 -105.5t-33.5 -105t-90 -36.5t-89 37zM94 538.5q0 -123.5 58.5 -123.5t58.5 123.5t-58.5 123.5t-58.5 -123.5zM332.5 -31q-32.5 37 -32.5 105.5t33.5 105t89 36.5t89 -37 t33.5 -105.5t-33.5 -105t-90 -36.5t-89 37zM364 74.5q0 -123.5 58.5 -123.5t58.5 123.5t-58.5 123.5t-58.5 -123.5z" />
<glyph unicode="&#x26;" horiz-adv-x="610" d="M22 163q0 104 83 163l73 52q-46 59 -46 110.5t38 84.5t92 33q124 0 124 -103q0 -25 -11.5 -49t-30.5 -35l-57 -36l141 -192q33 80 33 158q0 23 -14 23l-46 -2v29h151v-29l-46 2q-13 0 -13 -22q0 -95 -44 -189l90 -122q10 -13 30 -13l56 2v-28h-167l-60 81 q-32 -43 -73 -67t-115 -24t-131 46.5t-57 126.5zM129.5 266q-18.5 -45 -18.5 -101.5t38 -100t95 -43.5q76 0 136 84l-181 245l-17 -14q-34 -25 -52.5 -70zM226 559.5q-17 -18.5 -17 -45.5t19 -53l38 -50l44 36q20 20 20 54t-19.5 55.5t-43.5 21.5t-41 -18.5z" />
<glyph unicode="'" horiz-adv-x="133" d="M54 426l-20 174q0 40 33 40t33 -40l-20 -174q0 -17 -13 -17t-13 17z" />
<glyph unicode="(" horiz-adv-x="254" d="M18 240q0 243 193 471h43q-64 -81 -103 -221t-39 -250t39 -250t103 -221h-43q-193 228 -193 471z" />
<glyph unicode=")" horiz-adv-x="254" d="M43 -231h-43q64 81 103 221t39 250t-39 250t-103 221h43q193 -228 193 -471t-193 -471z" />
<glyph unicode="*" horiz-adv-x="338" d="M141 405l6 -22q0 -13 -10 -21t-20.5 -8t-28 13t-17.5 26.5t8 20.5t16 8q18 1 29 20.5t11 30.5q-12 5 -32.5 5t-30 -12t-24 -12t-21.5 8t-7 30t7 30t21.5 8t24 -12t30 -12t32.5 5q0 11 -9.5 28t-21.5 22q-3 1 -10 3q-23 4 -23 29q0 12 16.5 24.5t28 12.5t21.5 -8t10 -21 l-6 -22q0 -9 9.5 -25.5t18.5 -22.5q10 6 18.5 22.5t8.5 25.5l-5 22q0 13 10 21t20.5 8t28 -13.5t17.5 -22.5q0 -21 -13 -28q-3 -1 -10 -2q-19 -2 -29.5 -21t-12.5 -32q12 -5 33 -5t30.5 12t24 12t21.5 -8t7 -30t-7 -30t-21.5 -8t-24 12t-30.5 12t-33 -5q0 -11 10.5 -28 t16.5 -20t13 -4q25 -4 25 -31q0 -9 -17 -22.5t-28 -13.5t-21 8t-10 21l5 22q0 9 -9 25.5t-18 22.5q-11 -8 -19.5 -23.5t-8.5 -24.5z" />
<glyph unicode="+" d="M206 259h-186v44h186v185h49v-185h185v-44h-185v-186h-49v186z" />
<glyph unicode="," horiz-adv-x="250" d="M79 -160l-19 11q26 24 47.5 58t21.5 57q0 29 -36 29q-32 0 -32 43q0 21 17.5 37t40.5 16q70 0 70 -83q0 -50 -34 -94.5t-76 -73.5z" />
<glyph unicode="-" horiz-adv-x="249" d="M228 189h-206v55h206v-55z" />
<glyph unicode="." horiz-adv-x="250" d="M60 47q0 26 18.5 42t46.5 16t46.5 -16t18.5 -42t-18.5 -41.5t-46.5 -15.5t-46.5 15.5t-18.5 41.5z" />
<glyph unicode="/" horiz-adv-x="247" d="M34 -5l-39 11l219 629l38 -9z" />
<glyph unicode="0" horiz-adv-x="462" d="M30 267q0 139 51.5 208.5t150 69.5t149.5 -70.5t51 -207.5q0 -276 -201 -276t-201 276zM143 466q-25 -56 -25 -199.5t25 -196.5t88.5 -53t88.5 54t25 198.5t-25 198.5t-88.5 54t-88.5 -56z" />
<glyph unicode="1" horiz-adv-x="328" d="M61 461q75 22 143 94h15v-515q0 -18 15 -18l48 1v-23h-207v23l49 -1q16 0 16 18v404q0 9 -4.5 13.5t-11.5 0.5l-55 -27z" />
<glyph unicode="2" d="M364 0h-312q17 73 104 169l70 78q80 91 80 161q0 56 -26 86t-63 30t-56.5 -16.5t-19.5 -41.5q0 -9 5.5 -23.5t5.5 -26t-13 -23t-31 -11.5t-31.5 14.5t-13.5 39.5q0 42 39.5 76.5t117 34.5t125.5 -35.5t48 -103.5q0 -81 -109 -172l-61 -54q-77 -68 -108 -117h168 q92 0 92 88h26q-7 -83 -7 -114v-41q-16 2 -30 2z" />
<glyph unicode="3" horiz-adv-x="440" d="M127 458l2 -23q0 -16 -13.5 -26.5t-31.5 -10.5t-30.5 14.5t-12.5 37.5q0 47 46.5 73t118.5 26t119.5 -32t47.5 -84.5t-55.5 -96.5t-129.5 -50q216 0 216 -140q0 -65 -57 -110t-140.5 -45t-130 27.5t-46.5 74.5q0 23 12.5 39.5t32 16.5t32 -10t12.5 -27l-4 -27 q0 -30 26 -49t70 -19t75.5 38.5t31.5 93t-43.5 85t-136.5 39.5v23q58 0 103 41.5t45 99.5q0 39 -22 63.5t-59 24.5t-57.5 -18t-20.5 -49z" />
<glyph unicode="4" horiz-adv-x="441" d="M249 138h-236v56q14 12 26 27l25 28l202 250l32 45h30v-342h67v-64h-67v-98q0 -18 16 -18l38 1v-23h-207v23l58 -1q16 0 16 18v98zM249 435l-187 -233h187v233z" />
<glyph unicode="5" horiz-adv-x="440" d="M69.5 30q-27.5 24 -27.5 56t13 46.5t32 14.5q42 0 42 -35q0 -10 -4 -20t-4 -15q0 -30 24.5 -45.5t57.5 -15.5q58 0 82 39t24 110t-30.5 108t-89.5 37q-30 0 -60 -14.5t-43 -35.5q-1 -1 -2 -1h-14q-4 0 -5 1l19 277h224q36 0 69 3q-27 -56 -36 -126h-26q2 14 2 27t-7.5 22 t-21.5 9h-177l-15 -171q54 42 129 42t122.5 -45t47.5 -127.5t-55 -131t-137 -48.5q-40 0 -73 7.5t-60.5 31.5z" />
<glyph unicode="6" horiz-adv-x="430" d="M280 449l5 32q0 16 -13 28.5t-35 12.5q-51 0 -77.5 -57.5t-30.5 -150.5q31 46 90 46q81 0 126 -48.5t45 -132.5t-48 -136.5t-123 -52.5q-103 0 -142 74q-35 65 -35 171q0 314 207 314q57 0 87 -22.5t30 -64.5q0 -22 -12.5 -34.5t-32.5 -12.5q-41 0 -41 34zM150.5 59 q23.5 -48 69 -48t65 40t19.5 124q0 163 -85 163q-69 0 -84 -70q-8 -37 -8 -99t23.5 -110z" />
<glyph unicode="7" horiz-adv-x="377" d="M54 388h-31q20 112 20 152q11 -3 103 -3h248q-81 -85 -131.5 -218.5t-50.5 -253.5q0 -20 1 -31l2 -34h-80q-8 37 -8 73q0 182 187 399h-168q-44 0 -65.5 -19t-26.5 -65z" />
<glyph unicode="8" horiz-adv-x="440" d="M37 126q0 42 33.5 82t87.5 67q-51 31 -76 63t-25 72q0 65 49 102t121.5 37t116.5 -30.5t44 -89.5q0 -36 -38 -80.5t-76 -51.5q128 -64 128 -158q0 -65 -56.5 -106.5t-129.5 -41.5q-179 0 -179 135zM127.5 200.5q-23.5 -40.5 -23.5 -81t30 -72t77.5 -31.5t75 24.5 t27.5 65.5q0 75 -85 125l-47 29q-31 -19 -54.5 -59.5zM168 500.5q-25 -23.5 -25 -58t28 -69t82 -62.5q70 40 70 120q0 45 -23 69t-65 24t-67 -23.5z" />
<glyph unicode="9" horiz-adv-x="430" d="M150 90l-5 -32q0 -16 13 -28.5t35 -12.5q51 0 77.5 57.5t30.5 150.5q-31 -46 -90 -46q-81 0 -126 48.5t-45 132.5t48 136.5t123 52.5q103 0 142 -73q35 -66 35 -172q0 -314 -207 -314q-57 0 -87 22.5t-30 64.5q0 22 12.5 34.5t32.5 12.5q41 0 41 -34zM126 364 q0 -163 85 -163q69 0 84 69q8 38 8 100t-23.5 110t-69 48t-65 -40t-19.5 -124z" />
<glyph unicode=":" horiz-adv-x="250" d="M60 47q0 26 18.5 42t46.5 16t46.5 -16t18.5 -42t-18.5 -41.5t-46.5 -15.5t-46.5 15.5t-18.5 41.5zM60 345q0 26 18.5 42t46.5 16t46.5 -16t18.5 -42t-18.5 -41.5t-46.5 -15.5t-46.5 15.5t-18.5 41.5z" />
<glyph unicode=";" horiz-adv-x="250" d="M49 345q0 26 18.5 42t46.5 16t46.5 -16t18.5 -42t-18.5 -41.5t-46.5 -15.5t-46.5 15.5t-18.5 41.5zM91 -160l-19 11q26 24 47.5 58t21.5 57q0 29 -36 29q-32 0 -32 43q0 21 17.5 37t40.5 16q70 0 70 -83q0 -50 -34 -94.5t-76 -73.5z" />
<glyph unicode="&#x3c;" d="M406 -5l-352 211v24l352 212v-48l-257 -155l-43 -20l43 -21l257 -154v-49z" />
<glyph unicode="=" d="M425 103h-390v43h390v-43zM425 302h-390v43h390v-43z" />
<glyph unicode="&#x3e;" d="M406 207l-352 -212v48l256 155l43 20l-43 21l-256 154v49l352 -211v-24z" />
<glyph unicode="?" horiz-adv-x="400" d="M36 606q0 22 51 43t125.5 21t119.5 -31t45 -89q0 -32 -28.5 -65.5t-62.5 -57t-62.5 -54t-28.5 -57.5q0 -51 47 -78l-12 -19q-31 7 -69.5 40.5t-38.5 62.5t26 64t56 62q83 75 83 114.5t-20.5 62t-57.5 22.5q-96 0 -96 -54q0 -8 -8.5 -17t-23.5 -9t-30 11.5t-15 27.5z M148.5 4.5q-20.5 14.5 -20.5 40t19 43t46 17.5t46 -15t19 -41.5t-19 -42.5t-44.5 -16t-46 14.5z" />
<glyph unicode="@" horiz-adv-x="741" d="M26 178q0 107 50.5 203t142.5 155.5t209.5 59.5t201.5 -83.5t84 -206.5q0 -75 -40.5 -146.5t-107.5 -120.5t-107 -49q-24 0 -24 47.5t24 149.5q-57 -108 -102 -152.5t-91 -44.5t-70 32.5t-24 96t36.5 137t99.5 124t131 50.5q38 0 57 -39l5 20l92 17l-23 -98 q-42 -191 -42 -238q0 -17 13 -17q18 0 49.5 29.5t52.5 60.5q40 64 40 140q0 108 -76 185t-182.5 77t-185.5 -57t-118 -153t-39 -184q0 -130 82 -209.5t221 -79.5q89 0 157.5 29.5t133.5 95.5l18 -22q-69 -71 -144 -101.5t-174 -30.5q-160 0 -255 87t-95 236zM261 123 q0 -78 50 -78q20 0 61.5 50t76.5 124t35 129q0 21 -12.5 36.5t-30.5 15.5q-48 0 -89 -43t-66 -111.5t-25 -122.5z" />
<glyph unicode="A" horiz-adv-x="601" d="M410 27q26 0 26 27q0 17 -11 36l-49 118h-232l-47 -112q-21 -54 -9 -66q5 -5 17 -4l48 3v-29h-173v29l26 -2h4q20 0 34 20.5t29 56.5l209 503h26l211 -505q14 -36 28.5 -55.5t35.5 -19.5h5l33 2v-29h-265v29l49 -2h5zM259 488l-105 -252h212z" />
<glyph unicode="B" horiz-adv-x="573" d="M312 0h-262v29l50 -2q18 0 18 22v500q0 7 -4.5 13.5t-12.5 6.5l-51 -2v30h277q173 0 173 -143q0 -53 -37.5 -89.5t-100.5 -47.5q72 0 121.5 -44.5t49.5 -110.5q0 -162 -221 -162zM211 299v-258q0 -13 14 -13h70q64 0 102.5 36t38.5 98q0 137 -122 137h-103zM211 557v-230 h76q118 0 118 126q0 54 -32.5 85t-91.5 31h-58q-11 0 -12 -12z" />
<glyph unicode="C" horiz-adv-x="607" d="M124 71.5q-79 81.5 -79 226t79.5 227t220.5 82.5q43 0 68.5 -5.5t92.5 -31.5q18 -6 47 -6q-4 -37 -3.5 -61.5t0.5 -34.5v-14q0 -18 3 -21h-24q-14 62 -68 105.5t-121 43.5q-89 0 -141 -78.5t-52 -205.5t54.5 -204t143.5 -77q69 0 122 42.5t67 107.5h28l-2 -21l-2 -24 q-2 -32 -2 -50.5t3 -36.5h-6q-24 0 -69 -15l-37 -12l-37 -10q-43 -8 -70 -8q-137 0 -216 81.5z" />
<glyph unicode="D" horiz-adv-x="623" d="M287 0h-237v29l43 -2q15 0 15 22v499q0 21 -19 21l-39 -2v30h225q160 0 236.5 -69.5t76.5 -228.5q0 -299 -301 -299zM201 556v-515q0 -13 12 -13h45q124 0 176 61.5t52 208.5t-52 209t-176 62h-45q-12 0 -12 -13z" />
<glyph unicode="E" horiz-adv-x="563" d="M431 0h-381v30l40 -3q18 0 18 22v499q0 9 -5.5 15.5t-14.5 5.5l-38 -2v30h422q14 0 17 1v-155h-27q0 67 -33.5 96.5t-108.5 29.5h-107q-12 0 -12 -14v-230h94q34 0 55 27t21 74h27v-231h-27q0 44 -22.5 73t-53.5 29h-94v-256q0 -13 12 -13h140q68 0 103.5 39t35.5 112h27 v-182q-23 3 -88 3z" />
<glyph unicode="F" horiz-adv-x="529" d="M272 0h-222v30l40 -3q18 0 18 22v499q0 21 -17 21h-2l-39 -2v30h434q12 0 15 1v-155h-27q0 66 -34 96t-108 30h-117q-12 0 -12 -13v-241h75q36 0 57.5 27.5t21.5 74.5h27v-230h-27q0 45 -22 72.5t-57 27.5h-75v-239q0 -21 19 -21l52 3v-30z" />
<glyph unicode="G" horiz-adv-x="646" d="M122.5 67q-77.5 77 -77.5 229.5t77.5 231.5t222.5 79q79 0 161 -37q14 -6 47 -6q-4 -20 -4 -69v-21q0 -9 1 -13v-12l3 -16h-40q1 5 1 25.5t-10 41.5q-35 82 -164 82q-87 0 -140 -73t-53 -214q0 -278 198 -278q45 0 73 9.5t55 36.5v160q0 22 -19 22l-59 -2v29h231v-29 l-41 2q-19 0 -19 -21v-189q-5 1 -14 1l-20 -2q-15 -3 -31 -8l-53 -19q-50 -17 -108 -17q-140 0 -217.5 77z" />
<glyph unicode="H" horiz-adv-x="696" d="M495 548q0 23 -19 21l-49 -2v30h219v-30l-39 2q-9 1 -14 -5t-5 -16v-499q0 -22 19 -22l39 2v-29h-219v29l49 -2q19 0 19 22v245h-294v-245q0 -22 20 -22l49 2v-29h-220v29l39 -2q19 0 19 22v499q0 23 -19 21l-39 -2v30h220v-30l-49 2q-9 1 -14.5 -5.5t-5.5 -15.5v-226 h294v226z" />
<glyph unicode="I" horiz-adv-x="310" d="M260 0h-210v29l39 -2q19 0 19 22v499q0 9 -5 15.5t-14 5.5l-39 -2v30h210v-30l-39 2q-9 1 -14.5 -5.5t-5.5 -15.5v-499q0 -22 20 -22l39 2v-29z" />
<glyph unicode="J" horiz-adv-x="451" d="M24 -1v173h36q0 -82 42 -128q25 -28 68 -28t64 37t21 126v369q0 9 -5.5 15.5t-13.5 5.5l-69 -2v30h239v-30l-38 2q-9 1 -14.5 -5t-5.5 -15v-370q0 -189 -167 -189q-31 0 -71 7.5t-60 7.5t-26 -6z" />
<glyph unicode="K" horiz-adv-x="617" d="M270 0h-220v29l39 -2q19 0 19 22v499q0 10 -5 16t-14 5l-39 -2v30h220v-30l-49 2q-20 0 -20 -22v-269l215 255l11 15q6 8 6 12q0 9 -10 9l-42 -2v30h178v-30l-34 2h-2q-29 0 -56 -29l-154 -173l240 -326q11 -14 24 -14h3l31 3v-30h-237v30l51 -3q31 -2 15 25l-183 248 l-56 -66v-185q0 -22 20 -22l49 2v-29z" />
<glyph unicode="L" horiz-adv-x="514" d="M368 0h-318v30l43 -3q15 0 15 22v499q0 9 -5.5 15.5t-13.5 5.5l-39 -2v30h220v-30l-49 2q-9 1 -14.5 -5.5t-5.5 -15.5v-507q0 -13 12 -13h113q69 0 104.5 36.5t35.5 106.5h26v-174q-18 3 -124 3z" />
<glyph unicode="M" horiz-adv-x="858" d="M206 0h-161v29l39 -2q20 0 20 22v514q0 7 -10 6l-42 -2v30h154l233 -485l218 485h146v-30l-34 2q-9 1 -14.5 -5t-5.5 -15v-500q0 -22 20 -22l39 2v-29h-220v29l49 -2q20 0 20 22v471l-238 -530h-24l-257 536v-477q0 -22 19 -22l49 2v-29z" />
<glyph unicode="N" horiz-adv-x="662" d="M206 0h-161v29l39 -2q20 0 20 22v499q0 9 -5.5 15.5t-14.5 5.5l-39 -2v30h155l325 -443v395q0 20 -17 20h-3l-49 -2v30h161v-30l-39 2h-2q-17 0 -17 -21v-554h-30l-391 531v-476q0 -22 19 -22l49 2v-29z" />
<glyph unicode="O" horiz-adv-x="670" d="M45 299q0 143 66 216q49 55 103.5 73.5t120.5 18.5q141 0 224 -92q66 -73 66 -216t-66 -216q-84 -93 -224 -93q-65 0 -120 19t-104 74q-66 73 -66 216zM192.5 514q-45.5 -66 -45.5 -215.5t45.5 -215.5t142.5 -66t142.5 66t45.5 215.5t-45.5 215.5t-142.5 66t-142.5 -66z " />
<glyph unicode="P" horiz-adv-x="523" d="M108 547q0 24 -23 22l-35 -2v30h235q104 0 153.5 -39.5t49.5 -120t-49 -127.5t-133 -47h-105v-214q0 -22 20 -22l49 2v-29h-220v29l39 -2q19 0 19 22v498zM201 557v-266h84q46 0 76.5 41t30.5 102.5t-33.5 98t-89.5 36.5h-56q-4 0 -8 -3.5t-4 -8.5z" />
<glyph unicode="Q" horiz-adv-x="670" d="M45 299q0 143 66 216q49 55 103.5 73.5t120.5 18.5q141 0 224 -92q66 -73 66 -216t-67.5 -218.5t-172.5 -87.5q0 -69 46.5 -114t122.5 -45l-13 -30q-112 0 -184.5 53t-72.5 136q-104 12 -171.5 87.5t-67.5 218.5zM192.5 514q-45.5 -66 -45.5 -215.5t45.5 -215.5 t142.5 -66t142.5 66t45.5 215.5t-45.5 215.5t-142.5 66t-142.5 -66z" />
<glyph unicode="R" horiz-adv-x="581" d="M426 0q-16 33 -16 104v33q0 75 -48.5 112t-118.5 37h-42v-237q0 -22 20 -22l49 2v-29h-220v29l39 -2q19 0 19 22v499q0 21 -20 21h-2l-36 -2v30h225q111 0 161 -37.5t50 -121.5q0 -51 -33.5 -88.5t-88.5 -52.5q50 0 93 -48t43 -127q0 -30 7.5 -61t21.5 -33q6 -2 16.5 -2 t16.5 4v-30h-136zM201 559v-246h93q46 0 72 33t26 97t-28.5 95t-88.5 31h-62q-12 0 -12 -10z" />
<glyph unicode="S" horiz-adv-x="494" d="M48 203h25q23 -185 184 -185q50 0 79.5 33t30.5 87q0 77 -99 116l-102 41q-110 44 -110 146q0 70 48.5 118t136.5 48q26 0 51 -5l42 -12l36 -12q16 -6 30.5 -6t25.5 4q-3 -24 -3 -74t6 -68h-26q0 65 -42.5 105.5t-100.5 40.5t-90 -28.5t-32 -79.5q0 -68 86 -102l92 -37 q76 -31 108.5 -68.5t32.5 -96.5q0 -78 -55.5 -128t-133.5 -50q-59 0 -107.5 14t-76 14t-32.5 -5q4 21 4 92.5t-8 97.5z" />
<glyph unicode="T" horiz-adv-x="529" d="M41 443h-26v156q14 -2 40 -2h419q32 0 40 2v-156h-26q0 65 -28.5 95.5t-94.5 30.5h-42q-10 0 -12 -11v-509q0 -22 20 -22l53 2v-29h-239v29l54 -2q19 0 19 25v505q0 12 -12 12h-41q-66 0 -95 -30.5t-29 -95.5z" />
<glyph unicode="U" horiz-adv-x="651" d="M73 569l-38 -2v30h219v-30l-49 2q-9 1 -14.5 -5t-5.5 -15v-350q0 -84 46.5 -131t125 -47t127 50.5t48.5 126.5v350q0 10 -5 16t-13 5l-49 -2v30h161v-30l-39 2q-9 1 -14.5 -5t-5.5 -15v-360q0 -86 -63 -142.5t-160 -56.5q-122 0 -187 53.5t-65 155.5v349q0 9 -5.5 15.5 t-13.5 5.5z" />
<glyph unicode="V" horiz-adv-x="584" d="M23 569l-28 -2v30h215v-30l-53 2q-7 0 -9.5 -8t0.5 -16l181 -416l174 405l4 12q7 23 -9 23l-51 -2v30h157v-30l-36 2q-8 1 -11.5 -4t-9.5 -19l-238 -550h-26l-237 550q-11 23 -23 23z" />
<glyph unicode="W" horiz-adv-x="884" d="M23 569l-28 -2v30h216v-30l-53 2q-13 1 -13 -11q0 -2 3 -11l149 -392l126 390q2 8 2 10q0 14 -19 14h-4l-37 -2v30h208v-30l-42 2q-8 2 -10.5 -7t0.5 -15l164 -406l129 408q3 8 0 14.5t-11 5.5l-52 -2v30h153v-30l-30 2h-2q-16 0 -23 -21l-181 -558h-16l-206 520 l-170 -520h-19l-211 557q-7 22 -21 22h-2z" />
<glyph unicode="X" horiz-adv-x="566" d="M189 0h-159v30l33 -2h3q21 0 34 22l154 246l-151 254q-10 19 -32 19l-32 -2v30h228v-30l-42 2q-12 1 -16 -6.5t2 -14.5l109 -187l119 188q6 8 4.5 14.5t-12.5 5.5l-43 -2v30h152v-30l-28 2h-3q-17 0 -31 -20l-138 -221l169 -284q9 -17 28 -17h2l39 3v-30h-235v30l49 -3 q11 -1 12.5 7t-5.5 16l-126 213l-135 -216q-5 -9 -2.5 -15t8.5 -5l45 3v-30z" />
<glyph unicode="Y" horiz-adv-x="507" d="M22 569l-27 -2v30h221v-30l-53 2q-10 1 -11.5 -7.5t4.5 -16.5l137 -228l131 232q10 20 -7 20l-52 -2v30h152v-30l-29 2h-1q-16 0 -28 -21l-146 -260v-240q0 -21 20 -21l48 2v-29h-229v29l49 -2q19 0 19 22v214l-173 287q-10 19 -24 19h-1z" />
<glyph unicode="Z" horiz-adv-x="512" d="M371 0h-337v27l320 542h-151q-72 0 -106.5 -30.5t-34.5 -95.5h-27v157h12q5 0 29 -2h36q23 0 32 -1h320v-24l-323 -546h174q69 0 109.5 37.5t40.5 102.5h27l-8 -171q-12 4 -113 4z" />
<glyph unicode="[" horiz-adv-x="256" d="M223 -147h-177v822h177v-27h-104v-768h104v-27z" />
<glyph unicode="\" horiz-adv-x="248" d="M210 -5l-218 631l39 9l219 -629z" />
<glyph unicode="]" horiz-adv-x="256" d="M34 -147v27h105v768h-105v27h176v-822h-176z" />
<glyph unicode="^" d="M64 321h-46l201 336h23l200 -336h-47l-145 245l-20 42l-19 -42z" />
<glyph unicode="_" horiz-adv-x="493" d="M0 -183v40h493v-40h-493z" />
<glyph unicode="`" horiz-adv-x="517" d="M193 614q-10 8 -10 13.5t20 15.5t32 10t18 -3q8 -4 23 -22l95 -104q18 -20 18 -23q0 -8 -12 -8t-21 9z" />
<glyph unicode="a" horiz-adv-x="450" d="M27 105q0 79 63.5 116t203.5 37v58q0 45 -21.5 66t-66.5 21q-75 0 -75 -44q0 -8 5 -18t5 -22t-13.5 -20.5t-34.5 -8.5q-44 0 -44 45t39.5 70t122.5 25t126 -34t43 -107v-246q0 -19 13 -19l37 2v-26h-142q2 13 4 37l2 39q-41 -81 -135 -81q-132 0 -132 110zM118 112 q0 -38 18 -59.5t50 -21.5q46 0 77 40t31 102v58q-96 0 -136 -27.5t-40 -91.5z" />
<glyph unicode="b" horiz-adv-x="496" d="M57 707l-36 -2v25h136v-388q37 88 131 88q173 0 173 -220t-190 -220q-35 0 -60 10t-36 21t-26 31q-5 9 -18 9q-28 0 -28 -66h-33v692q0 20 -13 20zM159 226v-42q0 -167 112 -167q57 0 78 41t21 153t-18.5 152t-74.5 40t-87 -47.5t-31 -129.5z" />
<glyph unicode="c" horiz-adv-x="425" d="M89.5 47q-53.5 57 -53.5 159t54 163t142 61q64 0 109.5 -29.5t45.5 -73.5q0 -21 -12.5 -35t-30.5 -14q-40 0 -40 28q0 10 4.5 22.5t4.5 24.5q0 24 -23.5 37t-57.5 13q-54 0 -78.5 -46t-24.5 -151q0 -189 116 -189q45 0 84.5 31t51.5 76l25 -17q-36 -117 -167 -117 q-96 0 -149.5 57z" />
<glyph unicode="d" horiz-adv-x="496" d="M35 209q0 221 189 221q46 0 75.5 -23t39.5 -59v339q0 20 -13 20l-46 -2v25h146v-687q0 -19 13 -19l37 2v-26h-144q2 8 2 16v22q0 8 1 18l1 11q-25 -77 -111 -77q-102 0 -146 53.5t-44 165.5zM148.5 353q-21.5 -50 -21.5 -151t20.5 -143t79.5 -42t84.5 40t25.5 127v42 q0 177 -113 177q-54 0 -75.5 -50z" />
<glyph unicode="e" horiz-adv-x="449" d="M35 209q0 109 51 165t150 56q79 0 127.5 -50.5t50.5 -138.5v-29h-288q0 -188 126 -189q50 0 84.5 25t50.5 62l23 -17q-20 -48 -67.5 -75.5t-104.5 -27.5q-203 0 -203 219zM127 237h182q20 0 20 33q0 68 -21.5 100.5t-74.5 32.5t-79.5 -46t-26.5 -120z" />
<glyph unicode="f" horiz-adv-x="296" d="M164 597l6 -148v-29h107v-25h-106v-352q0 -19 13 -19l66 2v-26h-215v26l47 -2q4 0 4.5 1.5t-0.5 7t-1 10.5v352h-39v25h39v66q0 114 21 163q37 87 140 87h14q44 0 77.5 -18.5t33.5 -60.5q0 -33 -40 -33q-13 0 -24.5 7t-11.5 18.5t3.5 21t3.5 12.5q0 28 -44 28 q-94 0 -94 -114z" />
<glyph unicode="g" d="M215 -245q-183 0 -183 137q0 70 90 113q-26 7 -39 12.5t-25.5 22t-12.5 41t37 48.5t41 30q-30 14 -48 47t-18 74q0 67 47.5 108.5t122.5 41.5q39 0 76 -12q25 34 61.5 60.5t59 26.5t33 -13.5t10.5 -28.5t-9 -27t-25 -12t-25.5 11.5t-18.5 11.5t-30.5 -11t-34.5 -27 q74 -30 74 -129q0 -66 -47 -107.5t-124 -41.5q-41 0 -75 14q-39 -20 -39 -43q0 -37 58 -37h133q74 0 111.5 -32t37.5 -108.5t-65 -123t-173 -46.5zM119.5 -33.5q-38.5 -33.5 -38.5 -79.5t33.5 -76t108 -30t119.5 38t45 100q0 81 -98 81h-89q-42 0 -80.5 -33.5zM163.5 376.5 q-17.5 -26.5 -17.5 -97.5t17 -98t64 -27t64.5 28.5t17.5 96.5t-18 96t-64 28t-63.5 -26.5z" />
<glyph unicode="h" horiz-adv-x="525" d="M230 0h-195v26l37 -2q13 3 13 19v643q0 21 -13 21l-37 -2v25h136v-399q21 46 60 72.5t100 26.5t92.5 -33.5t31.5 -108.5v-245q0 -19 13 -19l37 2v-26h-195v26l46 -2q13 3 13 19v227q0 71 -12 99.5t-55 28.5q-60 0 -95.5 -52t-35.5 -138v-165q0 -19 13 -19l46 2v-26z" />
<glyph unicode="i" horiz-adv-x="255" d="M220 0h-185v26l37 -2q13 0 13 19v333q0 17 -12 20l-37 -2v26h135v-377q0 -19 13 -19l36 2v-26zM82 597.5q-15 12.5 -15 34.5t15 35t39 13t39.5 -13t15.5 -35t-15 -34.5t-39.5 -12.5t-39.5 12.5z" />
<glyph unicode="j" horiz-adv-x="251" d="M87 -133l-2 74v435q0 20 -13 20l-41 -2v26h140v-424q0 -239 -143 -239q-51 0 -68.5 6t-17.5 25q0 43 25 43q10 0 16 -7l13 -16q18 -24 38 -24q53 0 53 83zM83.5 597.5q-14.5 12.5 -14.5 35t15 35t39 12.5t39.5 -13t15.5 -35t-15.5 -34.5t-40 -12.5t-39 12.5z" />
<glyph unicode="k" horiz-adv-x="511" d="M230 0h-195v26l37 -2q13 3 13 19v643q0 21 -12 21l-37 -2v25h135v-493l163 140q9 9 6 14.5t-9 5.5l-43 -2v25h162v-25l-36 2q-15 0 -31 -14l-117 -100l175 -241q13 -18 27 -18l36 2v-26h-215v26l45 -2q9 -1 11 4t-2 10l-139 192l-33 -28v-159q0 -19 13 -19l46 2v-26z" />
<glyph unicode="l" horiz-adv-x="255" d="M220 0h-185v26l37 -2q13 3 13 19v644q0 17 -12 21l-37 -2v25h135v-688q0 -19 13 -19l36 2v-26z" />
<glyph unicode="m" horiz-adv-x="801" d="M230 0h-195v26l37 -2q13 3 13 19v333q0 20 -13 20l-37 -2v26h142q-5 -15 -5 -34l-1 -58q15 45 53 73.5t93 28.5q123 0 130 -114q17 55 57 84.5t102 29.5t93.5 -33.5t31.5 -108.5v-245q0 -19 13 -19l37 2v-26h-195v26l46 -2q13 3 13 19v227q0 71 -12 99.5t-55 28.5 q-56 0 -91.5 -52.5t-35.5 -137.5v-165q0 -19 13 -19l47 2v-26h-205v26l46 -2q13 3 13 19v229q0 76 -13.5 100.5t-63 24.5t-83.5 -52.5t-34 -134.5v-167q0 -19 13 -19l46 2v-26z" />
<glyph unicode="n" horiz-adv-x="525" d="M230 0h-195v26l37 -2q13 3 13 19v333q0 17 -13 20l-37 -2v26h141q-5 -15 -5 -35v-54q21 46 60 72.5t100 26.5t92.5 -33.5t31.5 -108.5v-245q0 -19 13 -19l37 2v-26h-195v26l46 -2q13 3 13 19v227q0 71 -12 99.5t-55 28.5q-60 0 -95.5 -52t-35.5 -138v-165q0 -19 13 -19 l46 2v-26z" />
<glyph unicode="o" horiz-adv-x="472" d="M86 48.5q-51 58.5 -51 161.5t51 161.5t150 58.5t150 -58.5t51 -161.5t-51 -161.5t-150 -58.5t-150 58.5zM151.5 357q-25.5 -46 -25.5 -147.5t25.5 -147t84.5 -45.5t84.5 45.5t25.5 147t-25.5 147.5t-84.5 46t-84.5 -46z" />
<glyph unicode="p" horiz-adv-x="494" d="M56 396l-36 -2v26h139q-4 -25 -4 -51v-29q31 90 132 90q172 0 172 -221q0 -110 -46.5 -164.5t-137.5 -54.5t-120 53v-238q0 -20 13 -20l62 2v-26h-206v26l32 -2q13 1 13 20v571q0 20 -13 20zM157 226v-42q0 -167 112 -167q57 0 78 41t21 151.5t-19 152t-74 41.5 t-86.5 -48.5t-31.5 -128.5z" />
<glyph unicode="q" horiz-adv-x="490" d="M425 -195q0 -21 13 -19l32 1v-26h-200v26l56 -1q13 1 13 19v257q-11 -30 -41.5 -51t-75.5 -21q-95 0 -141 48t-46 171q0 221 189 221q42 0 68.5 -12.5t48.5 -42.5q11 -14 20 -14q31 0 31 59h33v-615zM151.5 358.5q-24.5 -44.5 -24.5 -137.5t13 -136t32.5 -55.5 t51.5 -12.5t54.5 17.5t34.5 43.5q24 54 24 107v41q0 64 -15.5 103.5t-37.5 56.5t-53 17q-55 0 -79.5 -44.5z" />
<glyph unicode="r" horiz-adv-x="383" d="M289 350l4 25q0 17 -28 17q-42 0 -68.5 -61.5t-26.5 -122.5v-165q0 -19 13 -19l61 2v-26h-205v26l32 -2q13 0 13 19v333q0 20 -13 20l-36 -2v26h141q-6 -16 -6 -46v-48q42 104 124 104q36 0 55.5 -16t19.5 -44q0 -46 -39 -46q-41 0 -41 26z" />
<glyph unicode="s" horiz-adv-x="411" d="M44 10l5 132l26 2q0 -55 42.5 -91t102.5 -36q40 0 62 20.5t22 52t-16 49.5t-54 29l-96 27q-40 12 -63 40.5t-23 77t41 83t112 34.5q27 0 69 -11l28 -7q11 -4 24.5 -4t26.5 8l-6 -114h-22q0 40 -31.5 70.5t-77.5 30.5t-67.5 -20t-21.5 -51q0 -49 62 -66l96 -27 q51 -14 72 -41.5t21 -71.5q0 -65 -46 -100.5t-120 -35.5q-33 0 -78 13l-34 9q-15 4 -31 4t-25 -6z" />
<glyph unicode="t" horiz-adv-x="313" d="M85 395h-60v25q58 0 80.5 18.5t37.5 83.5h28v-102h110v-25h-110v-307q0 -38 9 -51.5t28 -13.5t35 11.5t21 28.5l21 -13q-20 -56 -106 -56q-51 0 -72.5 24t-21.5 78v299z" />
<glyph unicode="u" horiz-adv-x="524" d="M56 396l-36 -2v26h135v-272q0 -68 12 -96.5t49 -28.5q62 0 99.5 50.5t37.5 137.5v164q0 21 -12 21l-47 -2v26h146v-377q0 -19 13 -19l36 2v-26h-142q6 14 6 87q-41 -97 -158 -97q-67 0 -96.5 37t-29.5 121v228q0 20 -13 20z" />
<glyph unicode="v" horiz-adv-x="444" d="M20 396l-33 -2v26h203v-26l-44 2q-7 0 -12.5 -6t-2.5 -14l109 -264l106 268q3 5 1.5 11t-9.5 5l-44 -2v26h141v-26l-33 2q-18 0 -23 -15l-158 -386h-27l-154 388q-6 13 -20 13z" />
<glyph unicode="w" horiz-adv-x="725" d="M33 396l-46 -2v26h213v-26l-44 2q-11 1 -14.5 -5t-0.5 -15l94 -266l137 315h21l132 -308l96 262q3 6 1 12t-12 5l-53 -2v26h159v-26l-41 2q-15 0 -21 -17l-149 -389h-22l-133 311l-139 -311h-20l-141 393q-6 13 -17 13z" />
<glyph unicode="x" horiz-adv-x="486" d="M157 0h-152v26l43 -2q11 0 21 13l126 170l-126 176q-7 13 -19 13l-39 -2v26h215v-26l-46 2q-7 0 -10 -3.5t1 -9.5l86 -122l89 118q4 5 3 11t-9 6l-43 -2v26h149v-26l-42 2q-13 0 -25 -15l-105 -143l141 -201q9 -13 19 -13l44 2v-26h-221v26l49 -3q6 -1 8 4.5t-1 9.5 l-101 146l-109 -145q-2 -2 -2 -4q0 -10 13 -10l43 2v-26z" />
<glyph unicode="y" horiz-adv-x="485" d="M36 396l-49 -2v26h219v-26l-45 2q-7 0 -11 -5.5t-1 -11.5l122 -270l113 272q6 15 -10 15l-47 -2v26h155v-26l-41 2h-2q-16 0 -25 -19l-211 -509q-24 -59 -51 -83t-60.5 -24t-52 13t-20.5 36q0 25 11.5 38t28 13t26.5 -10.5t17.5 -21t18.5 -10.5q28 0 46 46l59 136 l-174 382q-6 13 -16 13z" />
<glyph unicode="z" horiz-adv-x="441" d="M138 0l-104 -2v20l249 377h-98q-101 0 -119 -115h-21l9 142h14q42 -2 82 -2h238v-19l-245 -376h105q129 0 129 114h21v-139h-260z" />
<glyph unicode="{" horiz-adv-x="280" d="M30 257v20q40 6 56 24t16 57v224q0 54 20.5 73.5t78.5 19.5h34v-30h-27q-39 0 -39 -56v-231q0 -46 -19.5 -63.5t-76.5 -27.5q58 -12 77 -29t19 -62v-236q0 -56 39 -56h27v-30h-34q-59 0 -79 19t-20 74v229q0 44 -13 57.5t-59 23.5z" />
<glyph unicode="|" horiz-adv-x="232" d="M134 -239h-36v969h36v-969z" />
<glyph unicode="}" horiz-adv-x="290" d="M45 -146v30h37q39 0 39 56v236q0 45 19 62t77 29q-57 10 -76.5 27.5t-19.5 63.5v231q0 56 -39 56h-37v30h44q58 0 78.5 -19.5t20.5 -73.5v-224q0 -39 16 -57t56 -24v-20q-46 -10 -59 -23.5t-13 -57.5v-229q0 -55 -20 -74t-79 -19h-44z" />
<glyph unicode="~" d="M49 226l-27 29q43 73 109 73q33 0 98.5 -32.5t93 -32.5t46.5 13t42 46l28 -29q-47 -78 -114 -78q-32 0 -98 32.5t-94 32.5t-44.5 -10.5t-39.5 -43.5z" />
<glyph unicode="&#xa1;" horiz-adv-x="269" d="M50 387q0 24 19.5 41t45 17t45 -17t19.5 -40.5t-18.5 -40.5t-45.5 -17t-46 16.5t-19 40.5zM145 -34q19 -105 19 -156.5t-49.5 -51.5t-49.5 51.5t19 156.5q19 139 19 252q0 16 11.5 16t11.5 -16q0 -113 19 -252z" />
<glyph unicode="&#xa2;" horiz-adv-x="394" d="M92 163q-41 46 -41 126.5t42.5 128.5t112.5 49v180h37v-183q40 -9 64.5 -30t24.5 -44t-10 -34t-25 -11q-34 0 -34 23q0 8 5 17.5t5 24t-19 25t-46 10.5q-44 0 -62.5 -36.5t-18.5 -120.5q0 -151 91 -151q37 0 67.5 24t41.5 61l20 -13q-23 -78 -104 -92v-212h-37v210 q-73 2 -114 48z" />
<glyph unicode="&#xa3;" horiz-adv-x="507" d="M454 -3l-78 3h-256q-20 0 -59 -1.5t-40 -1.5q43 24 69 67.5t26 91.5v150h-80v23h80v81q0 103 41.5 150t134.5 47q53 0 89 -25t36 -62q0 -16 -12.5 -28t-28.5 -12t-28.5 10t-12.5 20t4 21l4 16q0 37 -57 37q-40 0 -65.5 -26.5t-25.5 -70.5l6 -45q4 -33 5 -46l4 -40 q1 -11 1 -27h120v-23h-119v-80q0 -40 -26.5 -88.5t-55.5 -64.5h178q78 0 104.5 19.5t26.5 75.5h25z" />
<glyph unicode="&#xa4;" horiz-adv-x="443" d="M65 84l-23 23l49 49q-39 46 -39 107t38 110l-47 47l23 23l47 -47q50 39 109.5 39t109.5 -40l47 47l23 -23l-48 -47q39 -50 39 -107.5t-40 -109.5l48 -49l-23 -23l-48 49q-49 -38 -109 -38t-107 39zM124 362.5q-41 -40.5 -41 -98t41 -98t98.5 -40.5t98 40.5t40.5 98 t-40.5 98t-98 40.5t-98.5 -40.5z" />
<glyph unicode="&#xa5;" horiz-adv-x="507" d="M22 569l-27 -2v30h221v-30l-53 2q-10 1 -11.5 -7.5t4.5 -16.5l137 -228l131 232q10 20 -7 20l-52 -2v30h152v-30l-29 2h-1q-16 0 -28 -21l-116 -207h102v-29h-119l-13 -24v-57h132v-29h-132v-154q0 -21 20 -21l48 2v-29h-229v29l49 -2q19 0 19 22v153h-132v29h132v32 l-30 49h-102v29h85l-126 209q-10 19 -24 19h-1z" />
<glyph unicode="&#xa6;" horiz-adv-x="232" d="M97 -231v344h38v-344h-38zM135 265h-38v342h38v-342z" />
<glyph unicode="&#xa7;" horiz-adv-x="437" d="M35 254q0 41 20.5 66.5t68.5 44.5q-37 27 -49.5 50t-12.5 62q0 58 48 94t121 36t114 -25t41 -71q0 -21 -15 -37t-34.5 -16t-32 10t-12.5 19.5t10 27t10 31.5t-27.5 26t-61.5 12t-60 -20t-26 -51t10.5 -45.5t47.5 -39.5l124 -85q88 -60 88 -126q0 -79 -89 -111 q33 -25 47.5 -50t14.5 -61q0 -57 -49.5 -94.5t-120.5 -37.5t-112.5 26t-41.5 70q0 21 15 38t35 17t32 -9.5t12 -23t-10 -28t-10 -28.5t26 -25.5t62 -11.5t62 20t26 49t-11 44t-48 42l-124 86q-88 60 -88 125zM100 302q0 -46 44 -75l150 -103q25 6 35 17t10 33q0 43 -40 71 l-151 103q-48 -12 -48 -46z" />
<glyph unicode="&#xa8;" horiz-adv-x="447" d="M77 568q0 21 15.5 35t38 14t38.5 -14t16 -35t-15 -34.5t-39 -13.5t-39 13.5t-15 34.5zM272 568q0 21 15.5 35t38 14t38.5 -14t16 -35t-15 -34.5t-39 -13.5t-39 13.5t-15 34.5z" />
<glyph unicode="&#xa9;" horiz-adv-x="673" d="M56 274q0 118 83.5 202t201.5 84t202 -84t84 -202t-84 -201.5t-202 -83.5t-201.5 83.5t-83.5 201.5zM88 274q0 -106 73.5 -180.5t179 -74.5t179 74.5t73.5 180.5t-74 181t-179 75t-178.5 -75t-73.5 -181zM464 366q0 -6 1 -16h-12q-8 37 -37.5 60.5t-74.5 23.5t-74 -44.5 t-29 -114.5t29.5 -113t73.5 -43t74 23t38 59h16q-6 -34 -6 -47t2 -27h-3q-16 0 -56 -11t-59 -11q-80 0 -123 45.5t-43 127.5q2 81 45 125.5t120 44.5q47 0 75.5 -12.5t36 -12.5h9.5q-3 -21 -3 -35v-22z" />
<glyph unicode="&#xaa;" horiz-adv-x="262" d="M0 411q0 48 40 71t126 23v37q0 50 -52 50q-28 0 -34.5 -6t-6.5 -28q0 -29 -31 -29t-31 32q0 54 103 54q58 0 85 -21t27 -67v-147q0 -7 6 -7l30 1v-24h-95l3 47q-22 -55 -86 -55q-84 0 -84 69zM63 416q0 -43 38 -43q26 0 45.5 24.5t19.5 59.5v25q-103 0 -103 -66z" />
<glyph unicode="&#xab;" horiz-adv-x="457" d="M175 16l-149 171l149 171h36l-98 -171l98 -171h-36zM342 16l-149 171l149 171h35l-97 -171l97 -171h-35z" />
<glyph unicode="&#xac;" d="M397 319h-377v41h420v-214h-43v173z" />
<glyph unicode="&#xad;" horiz-adv-x="249" d="M228 189h-206v55h206v-55z" />
<glyph unicode="&#xae;" horiz-adv-x="673" d="M56 274q0 118 83.5 202t201.5 84t202 -84t84 -202t-84 -201.5t-202 -83.5t-201.5 83.5t-83.5 201.5zM88 274q0 -106 73.5 -180.5t179 -74.5t179 74.5t73.5 180.5t-74 181t-179 75t-178.5 -75t-73.5 -181zM243 144l1 14v256q0 13 -8 18.5t-32 5.5v18h159q52 0 80 -21.5 t28 -59.5t-24.5 -63t-65.5 -30q24 -3 39 -26l34 -64q9 -18 15 -28.5t9.5 -17.5t8.5 -9.5t6 -3.5t8 -0.5t9 0.5v-15h-47q-21 0 -29.5 5.5t-19.5 30.5l-21 46q-22 49 -35 60.5t-58 11.5v-124l5 -10l10 -4h24v-16h-135v15h18.5t9 0.5t4 1.5t3.5 2q4 4 4 7zM300 409v-118h26 q90 0 90 72.5t-77 72.5q-25 0 -32 -4t-7 -23z" />
<glyph unicode="&#xaf;" horiz-adv-x="447" d="M343 567h-239v40h239v-40z" />
<glyph unicode="&#xb0;" horiz-adv-x="374" d="M89 509q0 39 29.5 68.5t68.5 29.5t68.5 -29.5t29.5 -68.5t-29.5 -68.5t-68.5 -29.5t-68.5 29.5t-29.5 68.5zM130 509q0 -23 17 -39.5t39.5 -16.5t39.5 16.5t17 39.5t-17 39.5t-39.5 16.5t-39.5 -16.5t-17 -39.5z" />
<glyph unicode="&#xb1;" d="M440 0h-420v41h420v-41zM207 274h-187v41h187v191h45v-191h188v-41h-188v-194h-45v194z" />
<glyph unicode="&#xb2;" horiz-adv-x="263" d="M103.5 658.5q-9.5 -7.5 -9.5 -19t6 -21.5q0 -10 -10 -16.5t-22.5 -6.5t-22.5 8t-10 26t24.5 36t68.5 18t70.5 -18.5t26.5 -57.5t-51 -83l-46 -37q-24 -21 -41 -45h73q36 0 36 38h33q-3 -39 -3 -69v-9q-16 2 -23 2h-174q9 48 73 107q23 21 41.5 48t18.5 52t-10.5 40 t-24.5 15t-23.5 -7.5z" />
<glyph unicode="&#xb3;" horiz-adv-x="264" d="M98 630l1 -8q0 -9 -9.5 -15t-22.5 -6t-22 8t-9 21q0 52 93 52q41 0 67 -15.5t26 -42.5q0 -53 -76 -74q91 -11 91 -72q0 -37 -31 -59t-78 -22t-72.5 14.5t-25.5 39.5q0 13 9 22.5t22.5 9.5t23 -6.5t9.5 -15.5l-2 -12q0 -14 10.5 -23t28.5 -9t30.5 18t12.5 44t-21.5 40.5 t-68.5 19.5v17q29 0 51.5 20t22.5 43t-8.5 34t-20.5 11q-31 0 -31 -30v-4z" />
<glyph unicode="&#xb4;" horiz-adv-x="349" d="M108 511q0 4 5 9l106 117q19 22 24.5 24t13 1t25.5 -5t24.5 -7t6.5 -10.5t-6 -12.5l-176 -121q-3 -3 -13 -3t-10 8z" />
<glyph unicode="&#xb5;" horiz-adv-x="553" d="M8 -269v26l46 -1q12 1 15 19v602q0 19 -13 19l-36 -2v26h135v-272q0 -68 12 -96.5t49 -28.5q62 0 99.5 50.5t37.5 137.5v164q0 21 -12 21l-47 -2v26h146v-377q0 -19 13 -19l36 2v-26h-142q6 14 6 87q-18 -44 -54.5 -70.5t-80 -26.5t-65.5 20v-235q0 -16 14 -19l46 1v-26 h-205z" />
<glyph unicode="&#xb6;" horiz-adv-x="499" d="M82 328q-52 40 -52 113t52.5 114.5t145.5 41.5h250v-31h-101v-835h-35v835h-41q-38 0 -38 -38v-797h-35v557q-94 0 -146 40z" />
<glyph unicode="&#xb7;" horiz-adv-x="230" d="M50 184q0 26 18.5 42t46.5 16t46.5 -16t18.5 -42t-18.5 -41.5t-46.5 -15.5t-46.5 15.5t-18.5 41.5z" />
<glyph unicode="&#xb8;" horiz-adv-x="447" d="M131 -198l7 24q12 -13 35 -13t39.5 15.5t16.5 37.5t-34 40l-23 14q-11 8 -11 15t6 13l41 52h33l-27 -43q-6 -10 -6 -19q0 -11 43 -19q16 -3 29.5 -13t13.5 -28q0 -43 -24.5 -67.5t-69 -24.5t-69.5 16z" />
<glyph unicode="&#xb9;" horiz-adv-x="187" d="M14 629q45 12 87 54h25v-244q0 -7 4.5 -13t10.5 -5l29 1v-18h-156v18l41 -1q12 0 12 18v165q0 17 -17 11l-30 -11z" />
<glyph unicode="&#xba;" horiz-adv-x="351" d="M77.5 382q-33.5 38 -33.5 100.5t35 99t96 36.5t96.5 -36t35.5 -101t-34.5 -101t-98 -36t-97 38zM115 480q0 -63 11.5 -87.5t47 -24.5t49 22.5t13.5 88.5t-13 90.5t-48 24.5t-47.5 -25.5t-12.5 -88.5z" />
<glyph unicode="&#xbb;" horiz-adv-x="457" d="M94 16h-36l97 171l-97 171h36l148 -171zM266 16h-36l97 171l-97 171h36l148 -171z" />
<glyph unicode="&#xbc;" horiz-adv-x="580" d="M73 -70l-33 23l465 652l34 -20zM54 629q45 12 87 54h25v-244q0 -7 4.5 -13t10.5 -5l29 1v-18h-156v18l41 -1q12 0 12 18v165q0 17 -17 11l-30 -11zM485 9h-118v31q2 4 23 28l122 151h32v-172h33v-39h-33v-33q0 -18 15 -18l18 1v-18h-145v18l41 -1q12 0 12 18v34zM484 146 l-81 -99h81v99z" />
<glyph unicode="&#xbd;" horiz-adv-x="580" d="M73 -70l-33 23l465 652l34 -20zM54 629q45 12 87 54h25v-244q0 -7 4.5 -13t10.5 -5l29 1v-18h-156v18l41 -1q12 0 12 18v165q0 17 -17 11l-30 -11zM454.5 194.5q-9.5 -7.5 -9.5 -17t6 -23.5q0 -10 -10 -16.5t-22.5 -6.5t-22.5 8t-10 26t24.5 36t68.5 18t70.5 -18.5 t26.5 -58t-52 -82.5l-44 -37q-24 -19 -42 -45h73q36 0 36 38h33q-3 -39 -3 -69v-9q-16 2 -23 2h-174q9 48 73 107q23 21 41.5 48t18.5 52t-10.5 40t-24.5 15t-23.5 -7.5z" />
<glyph unicode="&#xbe;" horiz-adv-x="580" d="M98 630l1 -8q0 -9 -9.5 -15t-22.5 -6t-22 8t-9 21q0 52 93 52q41 0 67 -15.5t26 -42.5q0 -53 -76 -74q91 -11 91 -72q0 -37 -31 -59t-78 -22t-72.5 14.5t-25.5 39.5q0 13 9 22.5t22.5 9.5t23 -6.5t9.5 -15.5l-2 -12q0 -14 10.5 -23t28.5 -9t30.5 18t12.5 44t-21.5 40.5 t-68.5 19.5v17q29 0 51.5 20t22.5 43t-8.5 34t-20.5 11q-31 0 -31 -30v-4zM73 -70l-33 23l465 652l34 -20zM486 9h-118v31q2 4 23 28l122 151h32v-172h33v-39h-33v-33q0 -18 15 -18l18 1v-18h-145v18l41 -1q12 0 12 18v34zM485 146l-81 -99h81v99z" />
<glyph unicode="&#xbf;" horiz-adv-x="400" d="M36 -115q0 32 28.5 65.5t62.5 56.5t62.5 53.5t28.5 58.5q0 51 -47 78l12 19q31 -7 69.5 -40.5t38.5 -62.5t-26 -64t-56.5 -62.5t-56.5 -59.5t-26 -53q0 -41 20.5 -63.5t57.5 -22.5q96 0 96 54q0 8 8.5 17t23.5 9t30 -11.5t15 -27.5q0 -22 -51 -43t-125.5 -21t-119.5 31 t-45 89zM174 345q-19 15 -19 41.5t19 42.5t44.5 16t46 -14.5t20.5 -40t-19 -43t-46 -17.5t-46 15z" />
<glyph unicode="&#xc0;" horiz-adv-x="601" d="M410 27q26 0 26 27q0 17 -11 36l-49 118h-232l-47 -112q-21 -54 -9 -66q5 -5 17 -4l48 3v-29h-173v29l26 -2h4q20 0 34 20.5t29 56.5l209 503h26l211 -505q14 -36 28.5 -55.5t35.5 -19.5h5l33 2v-29h-265v29l49 -2h5zM259 488l-105 -252h212zM207 791q-10 8 -10 13.5 t20 15.5t32 10t18 -3q8 -4 23 -22l95 -104q18 -20 18 -23q0 -8 -12 -8t-21 9z" />
<glyph unicode="&#xc1;" horiz-adv-x="601" d="M410 27q26 0 26 27q0 17 -11 36l-49 118h-232l-47 -112q-21 -54 -9 -66q5 -5 17 -4l48 3v-29h-173v29l26 -2h4q20 0 34 20.5t29 56.5l209 503h26l211 -505q14 -36 28.5 -55.5t35.5 -19.5h5l33 2v-29h-265v29l49 -2h5zM259 488l-105 -252h212zM198 688q0 4 5 9l106 117 q19 22 24.5 24t13 1t25.5 -5t24.5 -7t6.5 -11t-6 -12l-176 -121q-3 -3 -13 -3t-10 8z" />
<glyph unicode="&#xc2;" horiz-adv-x="601" d="M410 27q26 0 26 27q0 17 -11 36l-49 118h-232l-47 -112q-21 -54 -9 -66q5 -5 17 -4l48 3v-29h-173v29l26 -2h4q20 0 34 20.5t29 56.5l209 503h26l211 -505q14 -36 28.5 -55.5t35.5 -19.5h5l33 2v-29h-265v29l49 -2h5zM259 488l-105 -252h212zM144 663q0 4 10.5 13 t31 26.5t37.5 35.5l48 48q25 25 29 25t29 -25l48 -48q17 -18 37.5 -35.5t31 -26.5t10.5 -13q0 -8 -9 -8t-28 12l-119 74l-119 -74q-19 -12 -28 -12t-9 8z" />
<glyph unicode="&#xc3;" horiz-adv-x="601" d="M410 27q26 0 26 27q0 17 -11 36l-49 118h-232l-47 -112q-21 -54 -9 -66q5 -5 17 -4l48 3v-29h-173v29l26 -2h4q20 0 34 20.5t29 56.5l209 503h26l211 -505q14 -36 28.5 -55.5t35.5 -19.5h5l33 2v-29h-265v29l49 -2h5zM259 488l-105 -252h212zM177 702h-20q0 37 18.5 64 t43 27t88.5 -21.5t80.5 -21.5t26 12t9.5 30h20q0 -37 -18.5 -64t-43.5 -27t-88.5 21.5t-80 21.5t-26 -12t-9.5 -30z" />
<glyph unicode="&#xc4;" horiz-adv-x="601" d="M410 27q26 0 26 27q0 17 -11 36l-49 118h-232l-47 -112q-21 -54 -9 -66q5 -5 17 -4l48 3v-29h-173v29l26 -2h4q20 0 34 20.5t29 56.5l209 503h26l211 -505q14 -36 28.5 -55.5t35.5 -19.5h5l33 2v-29h-265v29l49 -2h5zM259 488l-105 -252h212zM149 745q0 21 15.5 35t38 14 t38.5 -14t16 -35t-15 -34.5t-39 -13.5t-39 13.5t-15 34.5zM344 745q0 21 15.5 35t38 14t38.5 -14t16 -35t-15 -34.5t-39 -13.5t-39 13.5t-15 34.5z" />
<glyph unicode="&#xc5;" horiz-adv-x="601" d="M410 27q26 0 26 27q0 17 -11 36l-49 118h-232l-47 -112q-21 -54 -9 -66q5 -5 17 -4l48 3v-29h-173v29l26 -2h4q17 0 31.5 18t31.5 59l209 503h26l211 -505q17 -43 30.5 -59t33.5 -16h5l33 2v-29h-265v29l49 -2h5zM259 488l-105 -252h212zM241 679.5q-24 23.5 -24 58 t24.5 58t59.5 23.5t59 -23t24 -58t-24.5 -58.5t-59.5 -23.5t-59 23.5zM259 738q0 -18 12 -32t29 -14t29.5 14t12.5 32t-12.5 31.5t-29.5 13.5t-29 -13.5t-12 -31.5z" />
<glyph unicode="&#xc6;" horiz-adv-x="881" d="M180 0h-175v30l31 -3q13 -2 25.5 11t34.5 48l279 457q5 9 -0.5 16.5t-14.5 7.5l-51 -2v32h465q20 0 34 2v-156h-26q0 65 -34.5 95.5t-107.5 30.5h-164l45 -245h83q33 0 54.5 28.5t21.5 73.5h26v-231h-26q0 45 -21.5 73.5t-54.5 28.5h-79l48 -251q5 -19 21 -19h66 q141 0 141 144h27v-174q-36 3 -88 3h-345v30l57 -3q12 -1 18 7t4 18l-29 156h-246l-76 -128q-31 -56 6 -53l51 3v-30zM387 515l-172 -279h224z" />
<glyph unicode="&#xc7;" horiz-adv-x="607" d="M124 71.5q-79 81.5 -79 226t79.5 227t220.5 82.5q43 0 68.5 -5.5t92.5 -31.5q18 -6 47 -6q-4 -37 -3.5 -61.5t0.5 -34.5v-14q0 -18 3 -21h-24q-14 62 -68 105.5t-121 43.5q-89 0 -141 -78.5t-52 -205.5t54.5 -204t143.5 -77q69 0 122 42.5t67 107.5h28l-2 -21l-2 -24 q-2 -32 -2 -50.5t3 -36.5h-6q-24 0 -69 -15l-37 -12l-37 -10q-43 -8 -70 -8q-137 0 -216 81.5zM251 -198l7 24q12 -13 35 -13t39.5 15.5t16.5 37.5t-34 40l-23 14q-11 8 -11 15t6 13l41 52h33l-27 -43q-6 -10 -6 -19q0 -11 43 -19q16 -3 29.5 -13t13.5 -28 q0 -43 -24.5 -67.5t-69 -24.5t-69.5 16z" />
<glyph unicode="&#xc8;" horiz-adv-x="563" d="M431 0h-381v30l40 -3q18 0 18 22v499q0 9 -5.5 15.5t-14.5 5.5l-38 -2v30h422q14 0 17 1v-155h-27q0 67 -33.5 96.5t-108.5 29.5h-107q-12 0 -12 -14v-230h94q34 0 55 27t21 74h27v-231h-27q0 44 -22.5 73t-53.5 29h-94v-256q0 -13 12 -13h140q68 0 103.5 39t35.5 112h27 v-182q-23 3 -88 3zM192 791q-10 8 -10 13.5t20 15.5t32 10t18 -3q8 -4 23 -22l95 -104q18 -20 18 -23q0 -8 -12 -8t-21 9z" />
<glyph unicode="&#xc9;" horiz-adv-x="563" d="M431 0h-381v30l40 -3q18 0 18 22v499q0 9 -5.5 15.5t-14.5 5.5l-38 -2v30h422q14 0 17 1v-155h-27q0 67 -33.5 96.5t-108.5 29.5h-107q-12 0 -12 -14v-230h94q34 0 55 27t21 74h27v-231h-27q0 44 -22.5 73t-53.5 29h-94v-256q0 -13 12 -13h140q68 0 103.5 39t35.5 112h27 v-182q-23 3 -88 3zM219 688q0 4 5 9l106 117q19 22 24.5 24t13 1t25.5 -5t24.5 -7t6.5 -11t-6 -12l-176 -121q-3 -3 -13 -3t-10 8z" />
<glyph unicode="&#xca;" horiz-adv-x="563" d="M431 0h-381v30l40 -3q18 0 18 22v499q0 9 -5.5 15.5t-14.5 5.5l-38 -2v30h422q14 0 17 1v-155h-27q0 67 -33.5 96.5t-108.5 29.5h-107q-12 0 -12 -14v-230h94q34 0 55 27t21 74h27v-231h-27q0 44 -22.5 73t-53.5 29h-94v-256q0 -13 12 -13h140q68 0 103.5 39t35.5 112h27 v-182q-23 3 -88 3zM125 663q0 4 10.5 13t31 26.5t37.5 35.5l48 48q25 25 29 25t29 -25l48 -48q17 -18 37.5 -35.5t31 -26.5t10.5 -13q0 -8 -9 -8t-28 12l-119 74l-119 -74q-19 -12 -28 -12t-9 8z" />
<glyph unicode="&#xcb;" horiz-adv-x="563" d="M431 0h-381v30l40 -3q18 0 18 22v499q0 9 -5.5 15.5t-14.5 5.5l-38 -2v30h422q14 0 17 1v-155h-27q0 67 -33.5 96.5t-108.5 29.5h-107q-12 0 -12 -14v-230h94q34 0 55 27t21 74h27v-231h-27q0 44 -22.5 73t-53.5 29h-94v-256q0 -13 12 -13h140q68 0 103.5 39t35.5 112h27 v-182q-23 3 -88 3zM148 745q0 21 15.5 35t38 14t38.5 -14t16 -35t-15 -34.5t-39 -13.5t-39 13.5t-15 34.5zM343 745q0 21 15.5 35t38 14t38.5 -14t16 -35t-15 -34.5t-39 -13.5t-39 13.5t-15 34.5z" />
<glyph unicode="&#xcc;" horiz-adv-x="310" d="M260 0h-210v29l39 -2q19 0 19 22v499q0 9 -5 15.5t-14 5.5l-39 -2v30h210v-30l-39 2q-9 1 -14.5 -5.5t-5.5 -15.5v-499q0 -22 20 -22l39 2v-29zM65 791q-10 8 -10 13.5t20 15.5t32 10t18 -3q8 -4 23 -22l95 -104q18 -20 18 -23q0 -8 -12 -8t-21 9z" />
<glyph unicode="&#xcd;" horiz-adv-x="310" d="M260 0h-210v29l39 -2q19 0 19 22v499q0 9 -5 15.5t-14 5.5l-39 -2v30h210v-30l-39 2q-9 1 -14.5 -5.5t-5.5 -15.5v-499q0 -22 20 -22l39 2v-29zM86 688q0 4 5 9l106 117q19 22 24.5 24t13 1t25.5 -5t24.5 -7t6.5 -11t-6 -12l-176 -121q-3 -3 -13 -3t-10 8z" />
<glyph unicode="&#xce;" horiz-adv-x="310" d="M260 0h-210v29l39 -2q19 0 19 22v499q0 9 -5 15.5t-14 5.5l-39 -2v30h210v-30l-39 2q-9 1 -14.5 -5.5t-5.5 -15.5v-499q0 -22 20 -22l39 2v-29zM2 663q0 4 10.5 13t31 26.5t37.5 35.5l48 48q25 25 29 25t29 -25l48 -48q17 -18 37.5 -35.5t31 -26.5t10.5 -13q0 -8 -9 -8 t-28 12l-119 74l-119 -74q-19 -12 -28 -12t-9 8z" />
<glyph unicode="&#xcf;" horiz-adv-x="310" d="M260 0h-210v29l39 -2q19 0 19 22v499q0 9 -5 15.5t-14 5.5l-39 -2v30h210v-30l-39 2q-9 1 -14.5 -5.5t-5.5 -15.5v-499q0 -22 20 -22l39 2v-29zM7 745q0 21 15.5 35t38 14t38.5 -14t16 -35t-15 -34.5t-39 -13.5t-39 13.5t-15 34.5zM202 745q0 21 15.5 35t38 14t38.5 -14 t16 -35t-15 -34.5t-39 -13.5t-39 13.5t-15 34.5z" />
<glyph unicode="&#xd0;" horiz-adv-x="631" d="M111 293h-69v36h69v219q0 21 -19 21l-39 -2v30h225q160 0 236.5 -69.5t76.5 -228.5q0 -299 -301 -299h-237v29l43 -2q15 0 15 22v244zM204 293v-252q0 -13 12 -13h45q124 0 176 61.5t52 208.5t-52 209t-176 62h-45q-12 0 -12 -13v-227h187v-36h-187z" />
<glyph unicode="&#xd1;" horiz-adv-x="662" d="M206 0h-161v29l39 -2q20 0 20 22v499q0 9 -5.5 15.5t-14.5 5.5l-39 -2v30h155l325 -443v395q0 20 -17 20h-3l-49 -2v30h161v-30l-39 2h-2q-17 0 -17 -21v-554h-30l-391 531v-476q0 -22 19 -22l49 2v-29zM228 702h-20q0 37 18.5 64t43 27t88.5 -21.5t80.5 -21.5t26 12 t9.5 30h20q0 -37 -18.5 -64t-43.5 -27t-88 21.5t-80 21.5t-26.5 -12t-9.5 -30z" />
<glyph unicode="&#xd2;" horiz-adv-x="670" d="M45 299q0 143 66 216q49 55 103.5 73.5t120.5 18.5q141 0 224 -92q66 -73 66 -216t-66 -216q-84 -93 -224 -93q-65 0 -120 19t-104 74q-66 73 -66 216zM192.5 514q-45.5 -66 -45.5 -215.5t45.5 -215.5t142.5 -66t142.5 66t45.5 215.5t-45.5 215.5t-142.5 66t-142.5 -66z M242 791q-10 8 -10 13.5t20 15.5t32 10t18 -3q8 -4 23 -22l95 -104q18 -20 18 -23q0 -8 -12 -8t-21 9z" />
<glyph unicode="&#xd3;" horiz-adv-x="670" d="M45 299q0 143 66 216q49 55 103.5 73.5t120.5 18.5q141 0 224 -92q66 -73 66 -216t-66 -216q-84 -93 -224 -93q-65 0 -120 19t-104 74q-66 73 -66 216zM192.5 514q-45.5 -66 -45.5 -215.5t45.5 -215.5t142.5 -66t142.5 66t45.5 215.5t-45.5 215.5t-142.5 66t-142.5 -66z M242 688q0 4 5 9l106 117q19 22 24.5 24t13 1t25.5 -5t24.5 -7t6.5 -11t-6 -12l-176 -121q-3 -3 -13 -3t-10 8z" />
<glyph unicode="&#xd4;" horiz-adv-x="670" d="M45 299q0 143 66 216q49 55 103.5 73.5t120.5 18.5q141 0 224 -92q66 -73 66 -216t-66 -216q-84 -93 -224 -93q-65 0 -120 19t-104 74q-66 73 -66 216zM192.5 514q-45.5 -66 -45.5 -215.5t45.5 -215.5t142.5 -66t142.5 66t45.5 215.5t-45.5 215.5t-142.5 66t-142.5 -66z M179 663q0 4 10.5 13t31 26.5t37.5 35.5l48 48q25 25 29 25t29 -25l48 -48q17 -18 37.5 -35.5t31 -26.5t10.5 -13q0 -8 -9 -8t-28 12l-119 74l-119 -74q-19 -12 -28 -12t-9 8z" />
<glyph unicode="&#xd5;" horiz-adv-x="670" d="M45 299q0 143 66 216q49 55 103.5 73.5t120.5 18.5q141 0 224 -92q66 -73 66 -216t-66 -216q-84 -93 -224 -93q-65 0 -120 19t-104 74q-66 73 -66 216zM192.5 514q-45.5 -66 -45.5 -215.5t45.5 -215.5t142.5 -66t142.5 66t45.5 215.5t-45.5 215.5t-142.5 66t-142.5 -66z M212 702h-20q0 37 18.5 64t43 27t88.5 -21.5t80.5 -21.5t26 12t9.5 30h20q0 -37 -18.5 -64t-43.5 -27t-88.5 21.5t-80 21.5t-26 -12t-9.5 -30z" />
<glyph unicode="&#xd6;" horiz-adv-x="670" d="M45 299q0 143 66 216q49 55 103.5 73.5t120.5 18.5q141 0 224 -92q66 -73 66 -216t-66 -216q-84 -93 -224 -93q-65 0 -120 19t-104 74q-66 73 -66 216zM192.5 514q-45.5 -66 -45.5 -215.5t45.5 -215.5t142.5 -66t142.5 66t45.5 215.5t-45.5 215.5t-142.5 66t-142.5 -66z M183 745q0 21 15.5 35t38 14t38.5 -14t16 -35t-15 -34.5t-39 -13.5t-39 13.5t-15 34.5zM378 745q0 21 15.5 35t38 14t38.5 -14t16 -35t-15 -34.5t-39 -13.5t-39 13.5t-15 34.5z" />
<glyph unicode="&#xd7;" d="M94 103l-30 28l138 137l-136 135l29 29l134 -136l137 137l30 -29l-137 -136l137 -138l-28 -28l-138 137z" />
<glyph unicode="&#xd8;" horiz-adv-x="664" d="M44 290q0 152 74.5 234.5t216.5 82.5q43 0 70 -6t67 -24l63 108l37 -20l-64 -110q118 -85 118 -261q0 -145 -79.5 -225t-217.5 -80q-74 0 -138 29l-65 -110l-37 17l67 114q-112 75 -112 251zM189.5 511.5q-43.5 -68.5 -43.5 -216t38 -208.5l268 455q-45 38 -118 38 q-101 0 -144.5 -68.5zM479 507l-267 -456q43 -35 114 -35q106 0 152 65t46 217q0 79 -10 123.5t-35 85.5z" />
<glyph unicode="&#xd9;" horiz-adv-x="651" d="M73 569l-38 -2v30h219v-30l-49 2q-9 1 -14.5 -5t-5.5 -15v-350q0 -84 46.5 -131t125 -47t127 50.5t48.5 126.5v350q0 10 -5 16t-13 5l-49 -2v30h161v-30l-39 2q-9 1 -14.5 -5t-5.5 -15v-360q0 -86 -63 -142.5t-160 -56.5q-122 0 -187 53.5t-65 155.5v349q0 9 -5.5 15.5 t-13.5 5.5zM267 791q-10 8 -10 13.5t20 15.5t32 10t18 -3q8 -4 23 -22l95 -104q18 -20 18 -23q0 -8 -12 -8t-21 9z" />
<glyph unicode="&#xda;" horiz-adv-x="651" d="M73 569l-38 -2v30h219v-30l-49 2q-9 1 -14.5 -5t-5.5 -15v-350q0 -84 46.5 -131t125 -47t127 50.5t48.5 126.5v350q0 10 -5 16t-13 5l-49 -2v30h161v-30l-39 2q-9 1 -14.5 -5t-5.5 -15v-360q0 -86 -63 -142.5t-160 -56.5q-122 0 -187 53.5t-65 155.5v349q0 9 -5.5 15.5 t-13.5 5.5zM283 688q0 4 5 9l106 117q19 22 24.5 24t13 1t25.5 -5t24.5 -7t6.5 -11t-6 -12l-176 -121q-3 -3 -13 -3t-10 8z" />
<glyph unicode="&#xdb;" horiz-adv-x="651" d="M73 569l-38 -2v30h219v-30l-49 2q-9 1 -14.5 -5t-5.5 -15v-350q0 -84 46.5 -131t125 -47t127 50.5t48.5 126.5v350q0 10 -5 16t-13 5l-49 -2v30h161v-30l-39 2q-9 1 -14.5 -5t-5.5 -15v-360q0 -86 -63 -142.5t-160 -56.5q-122 0 -187 53.5t-65 155.5v349q0 9 -5.5 15.5 t-13.5 5.5zM207 663q0 4 10.5 13t31 26.5t37.5 35.5l48 48q25 25 29 25t29 -25l48 -48q17 -18 37.5 -35.5t31 -26.5t10.5 -13q0 -8 -9 -8t-28 12l-119 74l-119 -74q-19 -12 -28 -12t-9 8z" />
<glyph unicode="&#xdc;" horiz-adv-x="651" d="M73 569l-38 -2v30h219v-30l-49 2q-9 1 -14.5 -5t-5.5 -15v-350q0 -84 46.5 -131t125 -47t127 50.5t48.5 126.5v350q0 10 -5 16t-13 5l-49 -2v30h161v-30l-39 2q-9 1 -14.5 -5t-5.5 -15v-360q0 -86 -63 -142.5t-160 -56.5q-122 0 -187 53.5t-65 155.5v349q0 9 -5.5 15.5 t-13.5 5.5zM206 745q0 21 15.5 35t38 14t38.5 -14t16 -35t-15 -34.5t-39 -13.5t-39 13.5t-15 34.5zM401 745q0 21 15.5 35t38 14t38.5 -14t16 -35t-15 -34.5t-39 -13.5t-39 13.5t-15 34.5z" />
<glyph unicode="&#xdd;" horiz-adv-x="507" d="M22 569l-27 -2v30h221v-30l-53 2q-10 1 -11.5 -7.5t4.5 -16.5l137 -228l131 232q10 20 -7 20l-52 -2v30h152v-30l-29 2h-1q-16 0 -28 -21l-146 -260v-240q0 -21 20 -21l48 2v-29h-229v29l49 -2q19 0 19 22v214l-173 287q-10 19 -24 19h-1zM205 688q0 4 5 9l106 117 q19 22 24.5 24t13 1t25.5 -5t24.5 -7t6.5 -10.5t-6 -12.5l-176 -121q-3 -3 -13 -3t-10 8z" />
<glyph unicode="&#xde;" horiz-adv-x="524" d="M259 0h-220v29l39 -2q9 -1 14 5.5t5 16.5v499q0 21 -19 21l-39 -2v30h220v-30l-49 2q-9 0 -14.5 -6t-5.5 -15v-52h82q106 0 156 -39t50 -120.5t-49 -128t-136 -46.5h-103v-113q0 -11 4.5 -17t15.5 -5l49 2v-29zM190 471v-270q0 -13 13 -13h69q45 0 77.5 42.5t32.5 104 t-34 99t-92 37.5h-66z" />
<glyph unicode="&#xdf;" horiz-adv-x="528" d="M230 0h-195v29l36 -2q13 0 13 21v464q0 225 173 225q82 0 131.5 -31t49.5 -84q0 -36 -24 -61.5t-61.5 -47t-50.5 -39t-13 -47.5q0 -43 64 -87l87 -63q89 -62 89 -134.5t-50.5 -111.5t-130.5 -39q-35 0 -66.5 20t-31.5 54.5t33 34.5q35 0 39 -40q2 -15 13.5 -27.5 t34.5 -12.5q80 0 80 78q0 65 -75 120l-86 62q-79 58 -79 105q0 33 16.5 56.5t58.5 53t58 53.5t16 66t-27 69.5t-73.5 27.5t-75 -30t-28.5 -81q0 -21 7.5 -81t7.5 -86v-386q0 -21 14 -21l46 2v-29z" />
<glyph unicode="&#xe0;" horiz-adv-x="450" d="M27 105q0 79 63.5 116t203.5 37v58q0 45 -21.5 66t-66.5 21q-75 0 -75 -44q0 -8 5 -18t5 -22t-13.5 -20.5t-34.5 -8.5q-44 0 -44 45t39.5 70t122.5 25t126 -34t43 -107v-246q0 -19 13 -19l37 2v-26h-142q2 13 4 37l2 39q-41 -81 -135 -81q-132 0 -132 110zM118 112 q0 -38 18 -59.5t50 -21.5q46 0 77 40t31 102v58q-96 0 -136 -27.5t-40 -91.5zM135 614q-10 8 -10 13.5t20 15.5t32 10t18 -3q8 -4 23 -22l95 -104q18 -20 18 -23q0 -8 -12 -8t-21 9z" />
<glyph unicode="&#xe1;" horiz-adv-x="450" d="M27 105q0 79 63.5 116t203.5 37v58q0 45 -21.5 66t-66.5 21q-75 0 -75 -44q0 -8 5 -18t5 -22t-13.5 -20.5t-34.5 -8.5q-44 0 -44 45t39.5 70t122.5 25t126 -34t43 -107v-246q0 -19 13 -19l37 2v-26h-142q2 13 4 37l2 39q-41 -81 -135 -81q-132 0 -132 110zM118 112 q0 -38 18 -59.5t50 -21.5q46 0 77 40t31 102v58q-96 0 -136 -27.5t-40 -91.5zM130 511q0 4 5 9l106 117q19 22 24.5 24t13 1t25.5 -5t24.5 -7t6.5 -10.5t-6 -12.5l-176 -121q-3 -3 -13 -3t-10 8z" />
<glyph unicode="&#xe2;" horiz-adv-x="450" d="M27 105q0 79 63.5 116t203.5 37v58q0 45 -21.5 66t-66.5 21q-75 0 -75 -44q0 -8 5 -18t5 -22t-13.5 -20.5t-34.5 -8.5q-44 0 -44 45t39.5 70t122.5 25t126 -34t43 -107v-246q0 -19 13 -19l37 2v-26h-142q2 13 4 37l2 39q-41 -81 -135 -81q-132 0 -132 110zM118 112 q0 -38 18 -59.5t50 -21.5q46 0 77 40t31 102v58q-96 0 -136 -27.5t-40 -91.5zM69 486q0 4 10.5 13t31 26.5t37.5 35.5l48 48q25 25 29 25t29 -25l48 -48q17 -18 37.5 -35.5t31 -26.5t10.5 -13q0 -8 -9 -8t-28 12l-119 74l-119 -74q-19 -12 -28 -12t-9 8z" />
<glyph unicode="&#xe3;" horiz-adv-x="450" d="M27 105q0 79 63.5 116t203.5 37v58q0 45 -21.5 66t-66.5 21q-75 0 -75 -44q0 -8 5 -18t5 -22t-13.5 -20.5t-34.5 -8.5q-44 0 -44 45t39.5 70t122.5 25t126 -34t43 -107v-246q0 -19 13 -19l37 2v-26h-142q2 13 4 37l2 39q-41 -81 -135 -81q-132 0 -132 110zM118 112 q0 -38 18 -59.5t50 -21.5q46 0 77 40t31 102v58q-96 0 -136 -27.5t-40 -91.5zM102 525h-20q0 37 18.5 64t43 27t88.5 -21.5t80.5 -21.5t26 12t9.5 30h20q0 -37 -18.5 -64t-43 -27t-88.5 21.5t-80.5 21.5t-26 -12t-9.5 -30z" />
<glyph unicode="&#xe4;" horiz-adv-x="450" d="M27 105q0 79 63.5 116t203.5 37v58q0 45 -21.5 66t-66.5 21q-75 0 -75 -44q0 -8 5 -18t5 -22t-13.5 -20.5t-34.5 -8.5q-44 0 -44 45t39.5 70t122.5 25t126 -34t43 -107v-246q0 -19 13 -19l37 2v-26h-142q2 13 4 37l2 39q-41 -81 -135 -81q-132 0 -132 110zM118 112 q0 -38 18 -59.5t50 -21.5q46 0 77 40t31 102v58q-96 0 -136 -27.5t-40 -91.5zM77 568q0 21 15.5 35t38 14t38.5 -14t16 -35t-15 -34.5t-39 -13.5t-39 13.5t-15 34.5zM272 568q0 21 15.5 35t38 14t38.5 -14t16 -35t-15 -34.5t-39 -13.5t-39 13.5t-15 34.5z" />
<glyph unicode="&#xe5;" horiz-adv-x="450" d="M27 105q0 79 63.5 116t203.5 37v58q0 45 -21.5 66t-66.5 21q-75 0 -75 -44q0 -8 5 -18t5 -22t-13.5 -20.5t-34.5 -8.5q-44 0 -44 45t39.5 70t122.5 25t126 -34t43 -107v-246q0 -19 13 -19l37 2v-26h-142q2 13 4 37l2 39q-41 -81 -135 -81q-132 0 -132 110zM118 112 q0 -38 18 -59.5t50 -21.5q46 0 77 40t31 102v58q-96 0 -136 -27.5t-40 -91.5zM153 502.5q-24 23.5 -24 58t24.5 58t59.5 23.5t59 -23t24 -58t-24.5 -58.5t-59.5 -23.5t-59 23.5zM171 561q0 -18 12 -32t29 -14t29.5 14t12.5 32t-12.5 31.5t-29.5 13.5t-29 -13.5t-12 -31.5z " />
<glyph unicode="&#xe6;" horiz-adv-x="720" d="M131 359l10 -38q0 -14 -14 -22.5t-33 -8.5q-45 0 -45 45.5t40.5 70t120.5 24.5q105 0 141 -50q54 50 145 50q179 0 179 -213h-294q0 -90 34 -142t99 -52q39 0 78.5 25t57.5 62l24 -18q-21 -47 -66.5 -74.5t-99.5 -27.5q-143 0 -190 97q-48 -92 -146 -92 q-66 0 -105.5 25.5t-39.5 77.5q0 80 64 112t203 32v71q0 45 -19.5 67.5t-64.5 22.5q-79 0 -79 -44zM118 93q0 -65 73 -65q41 0 72 42.5t31 106.5v40q-92 0 -134 -31t-42 -93zM381 242h199q10 0 10 28q0 133 -89 133q-62 0 -91 -39.5t-29 -121.5z" />
<glyph unicode="&#xe7;" horiz-adv-x="425" d="M89.5 47q-53.5 57 -53.5 159t54 163t142 61q64 0 109.5 -29.5t45.5 -73.5q0 -21 -12.5 -35t-30.5 -14q-40 0 -40 28q0 10 4.5 22.5t4.5 24.5q0 24 -23.5 37t-57.5 13q-54 0 -78.5 -46t-24.5 -151q0 -189 116 -189q45 0 84.5 31t51.5 76l25 -17q-36 -117 -167 -117 q-96 0 -149.5 57zM151 -198l7 24q12 -13 35 -13t39.5 15.5t16.5 37.5t-34 40l-23 14q-11 8 -11 15t6 13l41 52h33l-27 -43q-6 -10 -6 -19q0 -11 43 -19q16 -3 29.5 -13t13.5 -28q0 -43 -24.5 -67.5t-69 -24.5t-69.5 16z" />
<glyph unicode="&#xe8;" horiz-adv-x="449" d="M35 209q0 109 51 165t150 56q79 0 127.5 -50.5t50.5 -138.5v-29h-288q0 -188 126 -189q50 0 84.5 25t50.5 62l23 -17q-20 -48 -67.5 -75.5t-104.5 -27.5q-203 0 -203 219zM127 237h182q20 0 20 33q0 68 -21.5 100.5t-74.5 32.5t-79.5 -46t-26.5 -120zM136 614 q-10 8 -10 13.5t20 15.5t32 10t18 -3q8 -4 23 -22l95 -104q18 -20 18 -23q0 -8 -12 -8t-21 9z" />
<glyph unicode="&#xe9;" horiz-adv-x="449" d="M35 209q0 109 51 165t150 56q79 0 127.5 -50.5t50.5 -138.5v-29h-288q0 -188 126 -189q50 0 84.5 25t50.5 62l23 -17q-20 -48 -67.5 -75.5t-104.5 -27.5q-203 0 -203 219zM127 237h182q20 0 20 33q0 68 -21.5 100.5t-74.5 32.5t-79.5 -46t-26.5 -120zM141 511q0 4 5 9 l106 117q19 22 24.5 24t13 1t25.5 -5t24.5 -7t6.5 -10.5t-6 -12.5l-176 -121q-3 -3 -13 -3t-10 8z" />
<glyph unicode="&#xea;" horiz-adv-x="449" d="M35 209q0 109 51 165t150 56q79 0 127.5 -50.5t50.5 -138.5v-29h-288q0 -188 126 -189q50 0 84.5 25t50.5 62l23 -17q-20 -48 -67.5 -75.5t-104.5 -27.5q-203 0 -203 219zM127 237h182q20 0 20 33q0 68 -21.5 100.5t-74.5 32.5t-79.5 -46t-26.5 -120zM68 486q0 4 10.5 13 t31 26.5t37.5 35.5l48 48q25 25 29 25t29 -25l48 -48q17 -18 37.5 -35.5t31 -26.5t10.5 -13q0 -8 -9 -8t-28 12l-119 74l-119 -74q-19 -12 -28 -12t-9 8z" />
<glyph unicode="&#xeb;" horiz-adv-x="449" d="M35 209q0 109 51 165t150 56q79 0 127.5 -50.5t50.5 -138.5v-29h-288q0 -188 126 -189q50 0 84.5 25t50.5 62l23 -17q-20 -48 -67.5 -75.5t-104.5 -27.5q-203 0 -203 219zM127 237h182q20 0 20 33q0 68 -21.5 100.5t-74.5 32.5t-79.5 -46t-26.5 -120zM76 568 q0 21 15.5 35t38 14t38.5 -14t16 -35t-15 -34.5t-39 -13.5t-39 13.5t-15 34.5zM271 568q0 21 15.5 35t38 14t38.5 -14t16 -35t-15 -34.5t-39 -13.5t-39 13.5t-15 34.5z" />
<glyph unicode="&#xec;" horiz-adv-x="255" d="M25 614q-10 8 -10 13.5t20 15.5t32 10t18 -3q8 -4 23 -22l95 -104q18 -20 18 -23q0 -8 -12 -8t-21 9zM220 0h-185v26l37 -2q13 0 13 19v333q0 17 -12 20l-37 -2v26h135v-377q0 -19 13 -19l36 2v-26z" />
<glyph unicode="&#xed;" horiz-adv-x="255" d="M220 0h-185v26l37 -2q13 0 13 19v333q0 17 -12 20l-37 -2v26h135v-377q0 -19 13 -19l36 2v-26zM44 511q0 4 5 9l106 117q19 22 24.5 24t13 1t25.5 -5t24.5 -7t6.5 -10.5t-6 -12.5l-176 -121q-3 -3 -13 -3t-10 8z" />
<glyph unicode="&#xee;" horiz-adv-x="255" d="M-28 486q0 4 10.5 13t31 26.5t37.5 35.5l47 48q27 25 30 25t30 -25l47 -48q17 -18 37.5 -35.5t31 -26.5t10.5 -13q0 -8 -9 -8t-28 12l-119 74l-119 -74q-19 -12 -28 -12t-9 8zM220 0h-185v26l37 -2q13 0 13 19v333q0 17 -12 20l-37 -2v26h135v-377q0 -19 13 -19l36 2v-26 z" />
<glyph unicode="&#xef;" horiz-adv-x="255" d="M-24 568q0 21 15.5 35t38 14t38.5 -14t16 -35t-15 -34.5t-39 -13.5t-39 13.5t-15 34.5zM220 0h-185v26l37 -2q13 0 13 19v333q0 17 -12 20l-37 -2v26h135v-377q0 -19 13 -19l36 2v-26zM171 568q0 21 15.5 35t38 14t38.5 -14t16 -35t-15 -34.5t-39 -13.5t-39 13.5 t-15 34.5z" />
<glyph unicode="&#xf0;" horiz-adv-x="492" d="M35 209q0 108 54 164t157 56q23 0 49 -7.5t33 -18.5q-31 77 -83 115l-105 -61l-15 26l96 55q-67 47 -109 47l20 22q69 0 136 -42l96 55l14 -26l-82 -48q161 -111 161 -333q0 -104 -55 -164t-157 -60t-156 56t-54 164zM152 362q-26 -42 -26 -152t27 -153t92.5 -43t93 45.5 t27.5 150t-28 149.5t-94 45t-92 -42z" />
<glyph unicode="&#xf1;" horiz-adv-x="525" d="M230 0h-195v26l37 -2q13 3 13 19v333q0 17 -13 20l-37 -2v26h141q-5 -15 -5 -35v-54q21 46 60 72.5t100 26.5t92.5 -33.5t31.5 -108.5v-245q0 -19 13 -19l37 2v-26h-195v26l46 -2q13 3 13 19v227q0 71 -12 99.5t-55 28.5q-60 0 -95.5 -52t-35.5 -138v-165q0 -19 13 -19 l46 2v-26zM139 525h-20q0 37 18.5 64t43 27t88.5 -21.5t80.5 -21.5t26 12t9.5 30h20q0 -37 -18.5 -64t-43.5 -27t-88 21.5t-80 21.5t-26.5 -12t-9.5 -30z" />
<glyph unicode="&#xf2;" horiz-adv-x="472" d="M86 48.5q-51 58.5 -51 161.5t51 161.5t150 58.5t150 -58.5t51 -161.5t-51 -161.5t-150 -58.5t-150 58.5zM151.5 357q-25.5 -46 -25.5 -147.5t25.5 -147t84.5 -45.5t84.5 45.5t25.5 147t-25.5 147.5t-84.5 46t-84.5 -46zM146 614q-10 8 -10 13.5t20 15.5t32 10t18 -3 q8 -4 23 -22l95 -104q18 -20 18 -23q0 -8 -12 -8t-21 9z" />
<glyph unicode="&#xf3;" horiz-adv-x="472" d="M86 48.5q-51 58.5 -51 161.5t51 161.5t150 58.5t150 -58.5t51 -161.5t-51 -161.5t-150 -58.5t-150 58.5zM151.5 357q-25.5 -46 -25.5 -147.5t25.5 -147t84.5 -45.5t84.5 45.5t25.5 147t-25.5 147.5t-84.5 46t-84.5 -46zM143 511q0 4 5 9l106 117q19 22 24.5 24t13 1 t25.5 -5t24.5 -7t6.5 -10.5t-6 -12.5l-176 -121q-3 -3 -13 -3t-10 8z" />
<glyph unicode="&#xf4;" horiz-adv-x="472" d="M86 48.5q-51 58.5 -51 161.5t51 161.5t150 58.5t150 -58.5t51 -161.5t-51 -161.5t-150 -58.5t-150 58.5zM151.5 357q-25.5 -46 -25.5 -147.5t25.5 -147t84.5 -45.5t84.5 45.5t25.5 147t-25.5 147.5t-84.5 46t-84.5 -46zM80 486q0 4 10.5 13t31 26.5t37.5 35.5l48 48 q25 25 29 25t29 -25l48 -48q17 -18 37.5 -35.5t31 -26.5t10.5 -13q0 -8 -9 -8t-28 12l-119 74l-119 -74q-19 -12 -28 -12t-9 8z" />
<glyph unicode="&#xf5;" horiz-adv-x="472" d="M86 48.5q-51 58.5 -51 161.5t51 161.5t150 58.5t150 -58.5t51 -161.5t-51 -161.5t-150 -58.5t-150 58.5zM151.5 357q-25.5 -46 -25.5 -147.5t25.5 -147t84.5 -45.5t84.5 45.5t25.5 147t-25.5 147.5t-84.5 46t-84.5 -46zM113 525h-20q0 37 18.5 64t43 27t88.5 -21.5 t80.5 -21.5t26 12t9.5 30h20q0 -37 -18.5 -64t-43.5 -27t-88 21.5t-80 21.5t-26.5 -12t-9.5 -30z" />
<glyph unicode="&#xf6;" horiz-adv-x="472" d="M86 48.5q-51 58.5 -51 161.5t51 161.5t150 58.5t150 -58.5t51 -161.5t-51 -161.5t-150 -58.5t-150 58.5zM151.5 357q-25.5 -46 -25.5 -147.5t25.5 -147t84.5 -45.5t84.5 45.5t25.5 147t-25.5 147.5t-84.5 46t-84.5 -46zM84 568q0 21 15.5 35t38 14t38.5 -14t16 -35 t-15 -34.5t-39 -13.5t-39 13.5t-15 34.5zM279 568q0 21 15.5 35t38 14t38.5 -14t16 -35t-15 -34.5t-39 -13.5t-39 13.5t-15 34.5z" />
<glyph unicode="&#xf7;" d="M441 249h-422v41h422v-41zM190 62.5q-15 12.5 -15 34t15 35t39 13.5t39.5 -12.5t15.5 -34.5t-15.5 -35t-39.5 -13t-39 12.5zM190 401.5q-15 12.5 -15 35t15 35t39 12.5t39.5 -12.5t15.5 -34.5t-15.5 -35t-39.5 -13t-39 12.5z" />
<glyph unicode="&#xf8;" horiz-adv-x="472" d="M35 211q0 102 51 160.5t150 58.5q54 0 99 -21l53 95l34 -21l-53 -96q68 -59 68 -169.5t-51 -169t-150 -58.5q-45 0 -81 13l-49 -88l-38 17l50 89q-83 55 -83 190zM151.5 357q-25.5 -46 -25.5 -141.5t20 -143.5l166 297q-25 34 -80 34t-80.5 -46zM334 324l-161 -288 q22 -19 63 -19q59 0 84.5 45.5t25.5 131.5t-12 130z" />
<glyph unicode="&#xf9;" horiz-adv-x="524" d="M56 396l-36 -2v26h135v-272q0 -68 12 -96.5t49 -28.5q62 0 99.5 50.5t37.5 137.5v164q0 21 -12 21l-47 -2v26h146v-377q0 -19 13 -19l36 2v-26h-142q6 14 6 87q-41 -97 -158 -97q-67 0 -96.5 37t-29.5 121v228q0 20 -13 20zM134 614q-10 8 -10 13.5t20 15.5t32 10t18 -3 q8 -4 23 -22l95 -104q18 -20 18 -23q0 -8 -12 -8t-21 9z" />
<glyph unicode="&#xfa;" horiz-adv-x="524" d="M56 396l-36 -2v26h135v-272q0 -68 12 -96.5t49 -28.5q62 0 99.5 50.5t37.5 137.5v164q0 21 -12 21l-47 -2v26h146v-377q0 -19 13 -19l36 2v-26h-142q6 14 6 87q-41 -97 -158 -97q-67 0 -96.5 37t-29.5 121v228q0 20 -13 20zM159 511q0 4 5 9l106 117q19 22 24.5 24t13 1 t25.5 -5t24.5 -7t6.5 -10.5t-6 -12.5l-176 -121q-3 -3 -13 -3t-10 8z" />
<glyph unicode="&#xfb;" horiz-adv-x="524" d="M56 396l-36 -2v26h135v-272q0 -68 12 -96.5t49 -28.5q62 0 99.5 50.5t37.5 137.5v164q0 21 -12 21l-47 -2v26h146v-377q0 -19 13 -19l36 2v-26h-142q6 14 6 87q-41 -97 -158 -97q-67 0 -96.5 37t-29.5 121v228q0 20 -13 20zM106 486q0 4 10.5 13t31 26.5t37.5 35.5l48 48 q25 25 29 25t29 -25l48 -48q17 -18 37.5 -35.5t31 -26.5t10.5 -13q0 -8 -9 -8t-28 12l-119 74l-119 -74q-19 -12 -28 -12t-9 8z" />
<glyph unicode="&#xfc;" horiz-adv-x="524" d="M56 396l-36 -2v26h135v-272q0 -68 12 -96.5t49 -28.5q62 0 99.5 50.5t37.5 137.5v164q0 21 -12 21l-47 -2v26h146v-377q0 -19 13 -19l36 2v-26h-142q6 14 6 87q-41 -97 -158 -97q-67 0 -96.5 37t-29.5 121v228q0 20 -13 20zM96 568q0 21 15.5 35t38 14t38.5 -14t16 -35 t-15 -34.5t-39 -13.5t-39 13.5t-15 34.5zM291 568q0 21 15.5 35t38 14t38.5 -14t16 -35t-15 -34.5t-39 -13.5t-39 13.5t-15 34.5z" />
<glyph unicode="&#xfd;" horiz-adv-x="485" d="M36 396l-49 -2v26h219v-26l-45 2q-7 0 -11 -5.5t-1 -11.5l122 -270l113 272q6 15 -10 15l-47 -2v26h155v-26l-41 2h-2q-16 0 -25 -19l-211 -509q-24 -59 -51 -83t-60.5 -24t-52 13t-20.5 36q0 25 11.5 38t28 13t26.5 -10.5t17.5 -21t18.5 -10.5q28 0 46 46l59 136 l-174 382q-6 13 -16 13zM182 511q0 4 5 9l106 117q19 22 24.5 24t13 1t25.5 -5t24.5 -7t6.5 -10.5t-6 -12.5l-176 -121q-3 -3 -13 -3t-10 8z" />
<glyph unicode="&#xfe;" horiz-adv-x="516" d="M56 706l-36 -2v26h139q-4 -25 -4 -51v-339q31 90 132 90q172 0 172 -221q0 -110 -46.5 -164.5t-137.5 -54.5t-120 53v-238q0 -20 13 -20l62 2v-26h-206v26l32 -2q13 1 13 20v881q0 20 -13 20zM157 226v-42q0 -167 112 -167q57 0 78 41t21 151.5t-19 152t-74 41.5 t-86.5 -48.5t-31.5 -128.5z" />
<glyph unicode="&#xff;" horiz-adv-x="485" d="M36 396l-49 -2v26h219v-26l-45 2q-7 0 -11 -5.5t-1 -11.5l122 -270l113 272q6 15 -10 15l-47 -2v26h155v-26l-41 2h-2q-16 0 -25 -19l-211 -509q-24 -59 -51 -83t-60.5 -24t-52 13t-20.5 36q0 25 11.5 38t28 13t26.5 -10.5t17.5 -21t18.5 -10.5q28 0 46 46l59 136 l-174 382q-6 13 -16 13zM117 568q0 21 15.5 35t38 14t38.5 -14t16 -35t-15 -34.5t-39 -13.5t-39 13.5t-15 34.5zM312 568q0 21 15.5 35t38 14t38.5 -14t16 -35t-15 -34.5t-39 -13.5t-39 13.5t-15 34.5z" />
<glyph unicode="&#x152;" horiz-adv-x="868" d="M480 0q-55 0 -140 -10q-142 0 -218 78t-76 224q0 315 297 315q27 0 66.5 -5t62.5 -5h327v-154h-27q0 68 -33.5 97t-108.5 29h-94q-13 0 -13 -14v-231h76q33 0 55 27.5t22 74.5h27v-231h-27q0 44 -22.5 73t-54.5 29h-76v-257q0 -13 13 -13h115q69 0 104.5 39.5t35.5 112.5 h27v-182q-24 3 -88 3h-250zM188.5 513.5q-45.5 -67.5 -45.5 -216.5t45 -214t146 -65t101 72v436q0 23 -29 39t-70 16q-102 0 -147.5 -67.5z" />
<glyph unicode="&#x153;" horiz-adv-x="761" d="M86.5 49q-51.5 59 -51.5 156.5t47 161t145 63.5q119 0 164 -74q27 39 63 56.5t97 17.5q82 0 128.5 -50.5t46.5 -140.5v-22h-294q0 -93 35 -143.5t101 -50.5q42 0 82 27.5t50 59.5l23 -17q-18 -46 -62.5 -74.5t-104.5 -28.5q-105 0 -165 74q-30 -42 -64.5 -58t-98.5 -16 q-90 0 -141.5 59zM126 203q0 -186 102 -186q70 0 93.5 45.5t23.5 150.5t-26 147.5t-92 42.5q-53 0 -77 -48.5t-24 -151.5zM432 242h197q12 0 12 15q0 78 -22 112t-73 34q-114 0 -114 -161z" />
<glyph unicode="&#x160;" horiz-adv-x="494" d="M48 203h25q23 -185 184 -185q50 0 79.5 33t30.5 87q0 77 -99 116l-102 41q-110 44 -110 146q0 70 48.5 118t136.5 48q40 0 93 -17l36 -12q15 -6 30 -6t26 4q-3 -24 -3 -74t6 -68h-26q0 65 -42.5 105.5t-100.5 40.5t-90 -28.5t-32 -79.5q0 -68 86 -102l92 -37 q76 -31 108.5 -68.5t32.5 -96.5q0 -78 -55.5 -128t-133.5 -50q-59 0 -107.5 14t-76 14t-32.5 -5q4 21 4 92.5t-8 97.5zM91 853q0 8 9 8t28 -12l119 -74l119 74q19 12 28 12t9 -8q0 -4 -10.5 -13t-31 -26.5t-37.5 -35.5l-48 -48q-25 -25 -29 -25t-29 25l-48 48 q-17 18 -37.5 35.5t-31 26.5t-10.5 13z" />
<glyph unicode="&#x161;" horiz-adv-x="411" d="M44 10l5 132l26 2q0 -55 42.5 -91t102.5 -36q40 0 62 20.5t22 52t-16 49.5t-54 29l-96 27q-40 12 -63 40.5t-23 77t41 83t112 34.5q27 0 69 -11l28 -7q11 -4 24.5 -4t26.5 8l-6 -114h-22q0 40 -31.5 70.5t-77.5 30.5t-67.5 -20t-21.5 -51q0 -49 62 -66l96 -27 q51 -14 72 -41.5t21 -71.5q0 -65 -46 -100.5t-120 -35.5q-33 0 -78 13l-34 9q-15 4 -31 4t-25 -6zM49 676q0 8 9 8t28 -12l119 -74l119 74q19 12 28 12t9 -8q0 -4 -10.5 -13t-31 -26.5t-37.5 -35.5l-48 -48q-25 -25 -29 -25t-29 25l-48 48q-17 18 -37.5 35.5t-31 26.5 t-10.5 13z" />
<glyph unicode="&#x178;" horiz-adv-x="507" d="M22 569l-27 -2v30h221v-30l-53 2q-10 1 -11.5 -7.5t4.5 -16.5l137 -228l131 232q10 20 -7 20l-52 -2v30h152v-30l-29 2h-1q-16 0 -28 -21l-146 -260v-240q0 -21 20 -21l48 2v-29h-229v29l49 -2q19 0 19 22v214l-173 287q-10 19 -24 19h-1zM135 745q0 21 15.5 35t38 14 t38.5 -14t16 -35t-15 -34.5t-39 -13.5t-39 13.5t-15 34.5zM330 745q0 21 15.5 35t38 14t38.5 -14t16 -35t-15 -34.5t-39 -13.5t-39 13.5t-15 34.5z" />
<glyph unicode="&#x17d;" horiz-adv-x="512" d="M371 0h-337v27l320 542h-151q-72 0 -106.5 -30.5t-34.5 -95.5h-27v157h12l29 -2h36q13 -1 32 -1h320v-24l-323 -546h174q69 0 109.5 37.5t40.5 102.5h27l-8 -171q-12 4 -113 4zM100 853q0 8 9 8t28 -12l119 -74l119 74q19 12 28 12t9 -8q0 -4 -10.5 -13t-31 -26.5 t-37.5 -35.5l-47 -48q-27 -25 -30 -25t-30 25l-47 48q-17 18 -37.5 35.5t-31 26.5t-10.5 13z" />
<glyph unicode="&#x17e;" horiz-adv-x="441" d="M138 0l-104 -2v20l249 377h-98q-101 0 -119 -115h-21l9 142h14q42 -2 82 -2h238v-19l-245 -376h105q129 0 129 114h21v-139h-260zM64 676q0 8 9 8t28 -12l119 -74l119 74q19 12 28 12t9 -8q0 -4 -10.5 -13t-31 -26.5t-37.5 -35.5l-47 -48q-27 -25 -30 -25t-30 25l-47 48 q-17 18 -37.5 35.5t-31 26.5t-10.5 13z" />
<glyph unicode="&#x192;" horiz-adv-x="306" d="M-100.5 -182.5q-18.5 5.5 -18.5 22t11 31t23 14.5t18.5 -11.5t15 -23.5t29 -12t36 17t35.5 60t63 269l41 205h-94l27 31h74l19 70q15 59 55 110q21 28 54.5 45.5t74.5 17.5q93 0 93 -37.5t-32 -37.5q-16 0 -23.5 7.5t-8.5 16.5t-9 16.5t-28 7.5t-41 -27t-34 -66 q-24 -78 -29 -123h99v-15l-29 -16h-76l-63 -302q-21 -98 -70 -179q-27 -43 -65.5 -69.5t-83.5 -26.5t-63.5 5.5z" />
<glyph unicode="&#x2c6;" horiz-adv-x="402" d="M49 486q0 4 10.5 13t31 26.5t37.5 35.5l48 48q25 25 29 25t29 -25l48 -48q17 -18 37.5 -35.5t31 -26.5t10.5 -13q0 -8 -9 -8t-28 12l-119 74l-119 -74q-19 -12 -28 -12t-9 8z" />
<glyph unicode="&#x2dc;" horiz-adv-x="400" d="M77 525h-20q0 37 18.5 64t43 27t88.5 -21.5t80.5 -21.5t26 12t9.5 30h20q0 -37 -18.5 -64t-43.5 -27t-88 21.5t-80 21.5t-26.5 -12t-9.5 -30z" />
<glyph unicode="&#x2013;" horiz-adv-x="477" d="M459 191h-441v39h441v-39z" />
<glyph unicode="&#x2014;" horiz-adv-x="794" d="M794 191h-794v39h794v-39z" />
<glyph unicode="&#x2018;" horiz-adv-x="220" d="M46 477q0 50 34 94.5t76 73.5l19 -11q-26 -24 -47.5 -58t-21.5 -54t5.5 -26t16.5 -6h14q32 0 32 -43q0 -21 -17.5 -37t-40.5 -16q-70 0 -70 83z" />
<glyph unicode="&#x2019;" horiz-adv-x="220" d="M83 379l-19 11q26 24 47.5 58t21.5 57q0 29 -36 29q-32 0 -32 43q0 21 17.5 37t40.5 16q70 0 70 -83q0 -50 -34 -94.5t-76 -73.5z" />
<glyph unicode="&#x201a;" horiz-adv-x="264" d="M121 -160l-19 11q26 24 47.5 58t21.5 57q0 29 -36 29q-32 0 -32 43q0 21 17.5 37t40.5 16q70 0 70 -83q0 -50 -34 -94.5t-76 -73.5z" />
<glyph unicode="&#x201c;" horiz-adv-x="386" d="M46 477q0 50 34 94.5t76 73.5l19 -11q-26 -24 -47.5 -58t-21.5 -54t5.5 -26t16.5 -6h14q32 0 32 -43q0 -21 -17.5 -37t-40.5 -16q-70 0 -70 83zM212 477q0 50 34 94.5t76 73.5l19 -11q-26 -24 -47.5 -58t-21.5 -54t5.5 -26t16.5 -6h14q32 0 32 -43q0 -21 -17.5 -37 t-40.5 -16q-70 0 -70 83z" />
<glyph unicode="&#x201d;" horiz-adv-x="386" d="M79 379l-19 11q26 24 47.5 58t21.5 57q0 29 -36 29q-32 0 -32 43q0 21 17.5 37t40.5 16q70 0 70 -83q0 -50 -34 -94.5t-76 -73.5zM245 379l-19 11q26 24 47.5 58t21.5 57q0 29 -36 29q-32 0 -32 43q0 21 17.5 37t40.5 16q70 0 70 -83q0 -50 -34 -94.5t-76 -73.5z" />
<glyph unicode="&#x201e;" horiz-adv-x="462" d="M121 -160l-19 11q26 24 47.5 58t21.5 57q0 29 -36 29q-32 0 -32 43q0 21 17.5 37t40.5 16q70 0 70 -83q0 -50 -34 -94.5t-76 -73.5zM301 -160l-19 11q26 24 47.5 58t21.5 57q0 29 -36 29q-32 0 -32 43q0 21 17.5 37t40.5 16q70 0 70 -83q0 -50 -34 -94.5t-76 -73.5z" />
<glyph unicode="&#x2020;" horiz-adv-x="528" d="M204 390l-68 7q-18 0 -33 -19.5t-28 -19.5q-40 0 -40 50q0 21 17.5 35.5t38.5 14.5t33 -6l26 -15q36 -21 91 -21q-12 36 -12 50.5t2 28.5l4 20q6 26 6 34.5t-15 24.5t-15 30t14 25t34 11t34 -11t14 -25t-15 -30t-15 -24.5t6 -34.5l4 -20q2 -14 2 -28.5t-12 -50.5 q55 0 91 21l26 15q12 6 33 6t38.5 -14.5t17.5 -35.5q0 -50 -40 -50q-14 0 -28.5 19.5t-32.5 19.5l-68 -7q-22 0 -41 9q0 -37 18 -63l13 -18q5 -8 5 -15.5t-5.5 -51.5t-7 -105t-3 -102t-5.5 -93t-11 -76.5t-18 -24.5t-18 24.5t-11 76.5q-6 81 -8 205q-2 51 -7.5 95t-5.5 51.5 t5 15.5l13 18q18 26 18 63q-19 -9 -41 -9z" />
<glyph unicode="&#x2021;" horiz-adv-x="528" d="M314 97l68 -7q18 0 32.5 19.5t28.5 19.5q40 0 40 -50q0 -21 -17.5 -35.5t-39 -14.5t-32.5 7l-26 14q-36 21 -91 21q12 -36 12 -50.5t-2 -28.5l-4 -20q-6 -26 -6 -34t15 -25t15 -30.5t-14 -24.5t-34 -11t-34 11t-14 24.5t15 30.5t15 25t-6 34l-4 20q-2 14 -2 28.5t12 50.5 q-55 0 -91 -21l-26 -14q-11 -7 -32.5 -7t-39 14.5t-17.5 35.5q0 50 40 50q13 0 28 -19.5t33 -19.5l68 7q22 0 41 -9q0 38 -18 62l-13 18q-5 8 -5 26.5t15 43.5l3 6l-9 18q-9 20 -9 34t5 22l13 18q18 26 18 63q-19 -9 -41 -9l-68 7q-18 0 -33 -19.5t-28 -19.5q-40 0 -40 50 q0 21 17.5 35.5t38.5 14.5t33 -6l26 -15q36 -21 91 -21q-12 36 -12 50.5t2 28.5l4 20q6 26 6 34.5t-15 24.5t-15 30t14 25t34 11t34 -11t14 -25t-15 -30t-15 -24.5t6 -34.5l4 -20q2 -14 2 -28.5t-12 -50.5q55 0 91 21l26 15q12 6 33 6t38.5 -14.5t17.5 -35.5q0 -50 -40 -50 q-14 0 -28.5 19.5t-32.5 19.5l-68 -7q-22 0 -41 9q0 -37 18 -63l13 -18q5 -8 5 -22t-9 -34l-9 -18l3 -6q15 -25 15 -43.5t-5 -26.5l-13 -18q-18 -24 -18 -62q19 9 41 9z" />
<glyph unicode="&#x2022;" horiz-adv-x="469" d="M105 247q0 51 37 83.5t92 32.5t91.5 -32.5t36.5 -83.5t-37 -83.5t-92.5 -32.5t-91.5 32.5t-36 83.5z" />
<glyph unicode="&#x2026;" horiz-adv-x="689" d="M60 47q0 26 18.5 42t46.5 16t46.5 -16t18.5 -42t-18.5 -41.5t-46.5 -15.5t-46.5 15.5t-18.5 41.5zM280 47q0 26 18.5 42t46.5 16t46.5 -16t18.5 -42t-18.5 -41.5t-46.5 -15.5t-46.5 15.5t-18.5 41.5zM499 47q0 26 18.5 42t46.5 16t46.5 -16t18.5 -42t-18.5 -41.5 t-46.5 -15.5t-46.5 15.5t-18.5 41.5z" />
<glyph unicode="&#x2030;" horiz-adv-x="827" d="M33 -70l-33 23l465 652l34 -20zM62.5 433q-32.5 37 -32.5 105.5t33.5 105t89 36.5t89 -37t33.5 -105.5t-33.5 -105t-90 -36.5t-89 37zM94 538.5q0 -123.5 58.5 -123.5t58.5 123.5t-58.5 123.5t-58.5 -123.5zM317.5 -31q-32.5 37 -32.5 105.5t33.5 105t89 36.5t89 -37 t33.5 -105.5t-33.5 -105t-90 -36.5t-89 37zM349 74.5q0 -123.5 58.5 -123.5t58.5 123.5t-58.5 123.5t-58.5 -123.5zM602.5 -31q-32.5 37 -32.5 105.5t33.5 105t89 36.5t89 -37t33.5 -105.5t-33.5 -105t-90 -36.5t-89 37zM634 74.5q0 -123.5 58.5 -123.5t58.5 123.5 t-58.5 123.5t-58.5 -123.5z" />
<glyph unicode="&#x2039;" horiz-adv-x="226" d="M175 16l-149 171l149 171h36l-98 -171l98 -171h-36z" />
<glyph unicode="&#x203a;" horiz-adv-x="225" d="M51 16h-36l98 171l-98 171h36l149 -171z" />
<glyph unicode="&#x20ac;" horiz-adv-x="466" d="M452 454q0 -9 2 -21h-18q-12 63 -54 106t-96.5 43t-93 -55.5t-49.5 -154.5h240l-10 -41h-234q-1 -5 -1 -13v-36q0 -16 2 -24h243l-10 -41h-230q13 -95 52.5 -147.5t95.5 -52.5t97 42.5t51 107.5h22q-3 -36 -3 -45l-2 -23v-17q0 -28 3 -47h-5q-16 0 -54 -15l-28 -12 q-13 -6 -39.5 -12t-44.5 -6q-90 0 -149.5 60t-74.5 167h-62l10 41h48q-1 5 -1 14v46q0 8 1 13h-58l10 41h51q15 113 75 174t154 61q33 0 53.5 -6t71.5 -31q16 -6 37 -6q-3 -39 -3 -65t1 -31v-14z" />
<glyph unicode="&#x2122;" horiz-adv-x="758" d="M57 491h-19v72h259v-72h-20q0 33 -14.5 43t-54.5 10h-15v-243q0 -24 44 -24v-15h-140v15q44 0 44 19v248l-47 -1q-27 -2 -32 -19zM443 262h-107v15q43 0 43 20v239q0 12 -31 12v15h90l93 -222l90 222h96v-15h-23q-9 0 -12 -15v-228q0 -17 9 -22.5t29 -5.5v-15h-125v15 q21 0 29.5 5.5t8.5 22.5v226h-6l-106 -269h-8l-106 269h-8v-230q0 -24 44 -24v-15z" />
<glyph unicode="&#x25fc;" horiz-adv-x="420" d="M0 420h420v-420h-420v420z" />
<glyph unicode="&#xe000;" horiz-adv-x="420" d="M0 0v420h420v-420h-420z" />
<glyph horiz-adv-x="0" />
<glyph horiz-adv-x="333" />
</font>
</defs>
</svg>
